<svg width="35" height="35" viewBox="0 0 35 35" fill="none" xmlns="http://www.w3.org/2000/svg">
<path d="M17.3252 0.622559C7.96975 0.622559 0.35791 8.2344 0.35791 17.5899C0.35791 26.9454 7.96975 34.5572 17.3252 34.5572C26.6807 34.5572 34.2925 26.9454 34.2925 17.5899C34.2925 8.2344 26.6807 0.622559 17.3252 0.622559ZM17.3252 3.23292C25.2685 3.23292 31.6822 9.64664 31.6822 17.5899C31.6822 25.5331 25.2685 31.9468 17.3252 31.9468C9.382 31.9468 2.96827 25.5331 2.96827 17.5899C2.96827 9.64664 9.382 3.23292 17.3252 3.23292ZM11.4519 7.39317C7.92896 9.4835 5.57862 13.2818 5.57862 17.5899H14.0623C14.0623 16.4173 14.7302 15.3874 15.7753 14.7348L11.4519 7.39317ZM23.1985 7.39317L19.0383 14.7348C20.0834 15.2548 20.7105 16.2847 20.7105 17.5899H29.0718C29.0718 13.2818 26.7215 9.4835 23.1985 7.39317ZM10.677 11.3087L12.3492 14.3269C12.2167 14.5869 12.1147 14.7195 11.9822 14.9795H8.59685C8.98942 13.6743 9.76437 12.3539 10.677 11.3087ZM23.9735 11.3087C25.0186 12.3539 25.661 13.6743 26.0536 14.9795H22.6683C22.5357 14.7195 22.4338 14.4595 22.3012 14.3269L23.9735 11.3087ZM17.3252 15.5097C16.1526 15.5097 15.2451 16.4173 15.2451 17.5899C15.2451 18.7625 16.1526 19.67 17.3252 19.67C18.4979 19.67 19.4054 18.7625 19.4054 17.5899C19.4054 16.4173 18.4979 15.5097 17.3252 15.5097ZM15.6122 20.445L11.4519 27.7866C13.1497 28.8317 15.2349 29.3365 17.3252 29.3365C19.4156 29.3365 21.5008 28.8317 23.1985 27.7866L19.0383 20.445C18.5182 20.705 17.9778 20.8528 17.3252 20.8528C16.6726 20.8528 16.1322 20.705 15.6122 20.445ZM16.9174 23.4632H17.7331L19.4054 26.4814C18.7528 26.614 17.9778 26.7261 17.3252 26.7261C16.6726 26.7261 15.8977 26.614 15.2451 26.4814L16.9174 23.4632Z" fill="#D00725"/>
</svg>
