<svg width="28" height="24" viewBox="0 0 28 24" fill="none" xmlns="http://www.w3.org/2000/svg">
<path d="M10.6562 0.90625L9.875 1C9.875 1 6.37109 1.38281 3.8125 3.4375H3.78125L3.75 3.46875C3.17578 3.99609 2.92578 4.64453 2.53125 5.59375C2.13672 6.54297 1.71484 7.75391 1.34375 9.09375C0.601563 11.7773 0 15.0273 0 18V18.25L0.125 18.5C1.05078 20.125 2.69531 21.1602 4.21875 21.875C5.74219 22.5898 7.05859 22.9688 7.96875 23L8.5625 23.0312L8.875 22.5L9.96875 20.5625C11.1289 20.8242 12.4648 21 14 21C15.5352 21 16.8711 20.8242 18.0312 20.5625L19.125 22.5L19.4375 23.0312L20.0312 23C20.9414 22.9688 22.2578 22.5898 23.7812 21.875C25.3047 21.1602 26.9492 20.125 27.875 18.5L28 18.25V18C28 15.0273 27.3984 11.7773 26.6562 9.09375C26.2852 7.75391 25.8633 6.54297 25.4688 5.59375C25.0742 4.64453 24.8242 3.99609 24.25 3.46875L24.2188 3.4375H24.1875C21.6289 1.38281 18.125 1 18.125 1L17.3438 0.90625L17.0625 1.625C17.0625 1.625 16.7734 2.35547 16.5938 3.1875C15.4609 3.03516 14.5352 3 14 3C13.4648 3 12.5391 3.03516 11.4062 3.1875C11.2266 2.35547 10.9375 1.625 10.9375 1.625L10.6562 0.90625ZM9.28125 3.1875C9.32422 3.32812 9.36719 3.44922 9.40625 3.5625C8.11328 3.88281 6.73438 4.37109 5.46875 5.15625L6.53125 6.84375C9.125 5.23438 12.8516 5 14 5C15.1484 5 18.875 5.23438 21.4688 6.84375L22.5312 5.15625C21.2656 4.37109 19.8867 3.88281 18.5938 3.5625C18.6328 3.44922 18.6758 3.32812 18.7188 3.1875C19.6523 3.375 21.4336 3.80469 22.9062 4.96875C22.8984 4.97266 23.2812 5.55078 23.625 6.375C23.9766 7.22266 24.3672 8.35156 24.7188 9.625C25.3945 12.0664 25.9258 15.0391 25.9688 17.6562C25.3398 18.6172 24.1719 19.4844 22.9375 20.0625C21.8594 20.5664 21.0078 20.75 20.5 20.8438L20 20C20.2969 19.8906 20.5898 19.7695 20.8438 19.6562C22.3828 18.9805 23.2188 18.25 23.2188 18.25L21.9062 16.75C21.9062 16.75 21.3438 17.2656 20.0312 17.8438C18.7188 18.4219 16.7148 19 14 19C11.2852 19 9.28125 18.4219 7.96875 17.8438C6.65625 17.2656 6.09375 16.75 6.09375 16.75L4.78125 18.25C4.78125 18.25 5.61719 18.9805 7.15625 19.6562C7.41016 19.7695 7.70312 19.8906 8 20L7.5 20.8438C6.99219 20.75 6.14062 20.5664 5.0625 20.0625C3.82812 19.4844 2.66016 18.6172 2.03125 17.6562C2.07422 15.0391 2.60547 12.0664 3.28125 9.625C3.63281 8.35156 4.02344 7.22266 4.375 6.375C4.71875 5.55078 5.10156 4.97266 5.09375 4.96875C6.56641 3.80469 8.34766 3.375 9.28125 3.1875ZM10.5 10C9.72656 10 9.04297 10.4414 8.625 11C8.20703 11.5586 8 12.2461 8 13C8 13.7539 8.20703 14.4414 8.625 15C9.04297 15.5586 9.72656 16 10.5 16C11.2734 16 11.957 15.5586 12.375 15C12.793 14.4414 13 13.7539 13 13C13 12.2461 12.793 11.5586 12.375 11C11.957 10.4414 11.2734 10 10.5 10ZM17.5 10C16.7266 10 16.043 10.4414 15.625 11C15.207 11.5586 15 12.2461 15 13C15 13.7539 15.207 14.4414 15.625 15C16.043 15.5586 16.7266 16 17.5 16C18.2734 16 18.957 15.5586 19.375 15C19.793 14.4414 20 13.7539 20 13C20 12.2461 19.793 11.5586 19.375 11C18.957 10.4414 18.2734 10 17.5 10ZM10.5 12C10.5547 12 10.625 12.0195 10.75 12.1875C10.875 12.3555 11 12.6484 11 13C11 13.3516 10.875 13.6445 10.75 13.8125C10.625 13.9805 10.5547 14 10.5 14C10.4453 14 10.375 13.9805 10.25 13.8125C10.125 13.6445 10 13.3516 10 13C10 12.6484 10.125 12.3555 10.25 12.1875C10.375 12.0195 10.4453 12 10.5 12ZM17.5 12C17.5547 12 17.625 12.0195 17.75 12.1875C17.875 12.3555 18 12.6484 18 13C18 13.3516 17.875 13.6445 17.75 13.8125C17.625 13.9805 17.5547 14 17.5 14C17.4453 14 17.375 13.9805 17.25 13.8125C17.125 13.6445 17 13.3516 17 13C17 12.6484 17.125 12.3555 17.25 12.1875C17.375 12.0195 17.4453 12 17.5 12Z" fill="#1F254E"/>
</svg>
