<svg width="41" height="41" viewBox="0 0 41 41" fill="none" xmlns="http://www.w3.org/2000/svg">
<path d="M15.2048 6.93781C10.7664 6.93781 7.1189 10.5804 7.1189 15.0237V26.3519C7.1189 30.7903 10.7615 34.4378 15.2048 34.4378H26.533C30.9714 34.4378 34.6189 30.7952 34.6189 26.3519V15.0237C34.6189 10.5853 30.9763 6.93781 26.533 6.93781H15.2048ZM15.2048 9.43781H26.533C29.6238 9.43781 32.1189 11.9329 32.1189 15.0237V26.3519C32.1189 29.4427 29.6238 31.9378 26.533 31.9378H15.2048C12.114 31.9378 9.6189 29.4427 9.6189 26.3519V15.0237C9.6189 11.9329 12.114 9.43781 15.2048 9.43781ZM28.2517 12.1722C27.6218 12.1722 27.1189 12.6751 27.1189 13.305C27.1189 13.9349 27.6218 14.4378 28.2517 14.4378C28.8816 14.4378 29.3845 13.9349 29.3845 13.305C29.3845 12.6751 28.8816 12.1722 28.2517 12.1722ZM20.8689 13.1878C16.7429 13.1878 13.3689 16.5618 13.3689 20.6878C13.3689 24.8138 16.7429 28.1878 20.8689 28.1878C24.9949 28.1878 28.3689 24.8138 28.3689 20.6878C28.3689 16.5618 24.9949 13.1878 20.8689 13.1878ZM20.8689 15.6878C23.6472 15.6878 25.8689 17.9095 25.8689 20.6878C25.8689 23.4661 23.6472 25.6878 20.8689 25.6878C18.0906 25.6878 15.8689 23.4661 15.8689 20.6878C15.8689 17.9095 18.0906 15.6878 20.8689 15.6878Z" fill="#D00725"/>
</svg>
