<svg width="25" height="34" viewBox="0 0 25 34" fill="none" xmlns="http://www.w3.org/2000/svg">
<path fill-rule="evenodd" clip-rule="evenodd" d="M4.27445 9.88116H9.78216C11.0834 9.88116 12.1426 10.9403 12.1426 12.2416V15.5503C12.1426 16.216 11.5979 16.7608 10.9321 16.7608H5.42441C4.12314 16.7608 3.06396 15.7016 3.06396 14.4003V11.0917C3.06396 10.4259 3.60868 9.88116 4.27445 9.88116Z" fill="white"/>
<path fill-rule="evenodd" clip-rule="evenodd" d="M5.7769 27.6147L5.78699 20.6948V20.15L7.33036 20.836L7.60272 32.6584L9.51932 33.2838L9.25705 23.4688L10.3465 23.1258L10.8408 31.5791C10.6289 31.5589 10.4272 31.5488 10.2456 31.5286C10.4574 32.0128 10.6794 32.497 10.8912 32.9812C11.2745 32.9913 11.6175 33.0518 11.9605 33.1123C11.9706 33.0922 12.0008 32.9913 12.0109 32.9711C12.5859 32.9509 13.0701 32.8097 13.2718 32.6988L13.635 32.8198C13.9174 32.4869 14.0788 29.8743 14.1595 28.341L12.828 29.1883C12.8179 29.7936 12.9793 30.9839 13.0297 31.8111C12.8784 31.7808 12.4144 31.7404 12.2227 31.7203L12.2328 22.803L13.0096 23.025C13.0196 23.0451 12.7977 25.0525 12.7977 25.4157L14.2604 26.2227C14.2604 25.9301 14.2604 25.6779 14.2604 25.5064L14.2503 22.7829L15.5617 22.4903L16.0055 22.8837L16.0761 22.9543L15.9248 23.0653L15.3297 23.489C15.0573 26.7674 15.5516 29.2892 14.7345 32.8097C15.2994 32.729 16.3586 32.5979 16.9235 32.5273C17.2362 32.2751 17.0546 28.0182 17.1151 25.799C17.4379 25.7889 18.6081 24.0236 18.8199 22.914L18.0432 23.0653C18.2953 21.5018 18.4366 19.797 18.4567 19.5448C18.7795 20.3619 18.9914 21.1991 19.0115 21.9759L19.7782 21.3404C19.5664 22.8232 19.5664 23.7512 18.2046 26.0814C20.8777 25.4257 23.3491 21.2294 24.2368 18.6975L23.3491 18.7983L24.3377 14.6726C25.1649 11.2025 24.6807 10.1131 23.0667 6.84479C21.5838 3.84884 20.676 1.559 17.1958 0.832712C13.9376 0.156857 10.8408 -0.518998 7.98604 1.05463L5.45411 2.44669L5.43393 3.57648L5.3835 4.42382C5.42384 4.65583 5.90804 3.97997 5.95848 4.22207C6.27119 5.77553 6.7352 7.42986 6.80582 7.68204C6.22075 7.02636 5.71638 6.31016 5.42384 5.59396C5.19184 5.75535 5.09096 6.17902 4.92956 6.46147L3.71908 3.85893C1.67134 5.08959 0.682775 6.72374 0.309542 8.56973C-0.295701 11.5354 0.682775 15.0156 1.32837 18.1628L2.37746 18.6269V19.101V19.6659L2.902 19.8878L3.75943 20.2509V19.8878L3.74934 25.92C2.89191 26.263 3.1441 27.534 4.05196 27.5441C4.79843 27.5441 5.18175 26.6463 4.64712 26.1117C4.54624 26.0108 4.41511 25.9301 4.27388 25.8898L4.28397 19.5045V19.908L3.75943 19.686L2.902 19.3229V18.8488L5.25236 19.8878L5.2221 27.6248C5.11114 27.6651 5.02035 27.7257 4.93965 27.8064C4.78834 27.9577 4.69755 28.1695 4.68747 28.4015C4.68747 28.6335 4.77825 28.8454 4.92956 28.9967C5.08087 29.148 5.29271 29.2388 5.52472 29.2489C5.75673 29.2489 5.96856 29.1581 6.11987 29.0068C6.27119 28.8555 6.36197 28.6436 6.37206 28.4116C6.37206 28.1796 6.28127 27.9678 6.12996 27.8165C6.02909 27.7156 5.89795 27.6349 5.75673 27.5945L5.7769 27.6147ZM13.1508 16.5589L15.0371 17.4971L16.8125 15.1265L19.0519 17.3659L20.3834 15.5199L18.023 13.8051L20.5045 11.3438L18.4668 10.446L16.9134 12.6551L14.0889 10.7183L13.7157 12.0398L15.8138 13.9766L13.1609 16.569L13.1508 16.5589ZM3.83004 26.959C4.15283 27.2818 4.63703 26.7976 4.32432 26.4748C4.00152 26.152 3.51733 26.6362 3.83004 26.959ZM12.9995 17.5072C13.4131 17.9308 13.3828 18.3343 13.6955 18.8589C14.0486 19.454 14.2301 19.2523 13.7358 20.2913C13.635 20.5132 13.6047 20.6141 13.3828 20.6847C13.1508 20.8259 12.5758 20.4325 12.4548 20.4728C12.3337 20.5132 11.6679 20.8864 11.6679 20.8864C11.4359 20.8864 11.1837 20.2812 11.103 20.0895C11.0425 19.9584 10.9316 19.7163 10.9013 19.565C10.8509 19.3128 10.9618 19.2422 11.0829 19.0707C11.678 18.294 11.5671 17.6484 12.2631 17.3357C12.5455 16.8414 12.7675 17.2852 12.9995 17.5172V17.5072ZM9.16626 15.6813C9.49915 15.3384 9.71098 14.945 9.84212 14.5213C9.88247 14.3599 9.92282 14.2086 9.93291 14.0472L11.8899 15.1366C12.2833 15.3585 10.8811 15.6208 9.16626 15.6813ZM7.20931 12.5643C7.06809 12.5845 6.95713 12.6551 6.85625 12.756C6.52337 13.0889 6.39223 13.5226 6.36197 13.8959C6.35188 14.2691 6.46285 14.5616 6.64442 14.7936C6.96721 15.177 7.64307 15.3585 8.097 14.8441C8.2584 14.6524 8.35927 14.4305 8.4198 14.1884C8.49041 13.8858 8.48032 13.5832 8.37945 13.2906C8.35927 13.2402 8.3391 13.1898 8.31892 13.1393L7.26984 12.5542C7.24966 12.5542 7.22949 12.5542 7.20931 12.5643ZM5.9383 11.8179C5.3028 12.3828 4.94974 13.331 4.88921 13.9362C4.87913 14.4809 5.02035 14.945 5.28262 15.3283C4.94974 15.2274 4.66729 15.0963 4.45546 14.9349L3.64847 10.5368L5.9383 11.8179ZM5.79708 28.1695H5.78699L5.7769 28.1594L5.76682 28.1493C5.75673 28.1393 5.73655 28.1292 5.72647 28.1292L5.70629 28.1191H5.68612H5.66594H5.64577H5.63568H5.62559H5.61551H5.60542H5.59533H5.58524H5.57516H5.56507H5.55498H5.54489H5.53481H5.52472H5.51463H5.50454H5.49446H5.48437H5.47428C5.42384 28.1393 5.37341 28.1695 5.33306 28.1998C5.29271 28.2401 5.26245 28.2805 5.25236 28.341V28.3511V28.3612V28.3713V28.3814V28.3914V28.4015V28.4116V28.4217V28.4318V28.4419V28.452V28.4621V28.4721V28.4822V28.4923V28.5024V28.5125V28.5226V28.5327V28.5428V28.5528V28.5629V28.573V28.5831V28.5932V28.6033V28.6134V28.6234L5.26245 28.6436V28.6537L5.27253 28.6739V28.684V28.6941V28.7041V28.7142V28.7243L5.29271 28.7445H5.3028L5.31288 28.7546L5.32297 28.7647L5.33306 28.7748L5.34315 28.7848L5.35323 28.7949H5.36332H5.37341H5.3835H5.39358H5.40367H5.41376H5.42384H5.43393H5.44402H5.45411H5.46419H5.47428H5.48437H5.49446H5.50454H5.51463H5.52472H5.53481H5.54489H5.55498H5.56507H5.57516H5.58524H5.59533H5.60542H5.61551C5.66594 28.7748 5.71638 28.7445 5.75673 28.7142C5.79708 28.6739 5.82734 28.6335 5.83743 28.573V28.5629V28.5428V28.5327V28.5024V28.4923V28.4822V28.4721V28.4621V28.452V28.4419V28.4318V28.4217V28.4116V28.4015V28.3914V28.3814V28.3713V28.3612V28.3511V28.341V28.3309V28.3208V28.3107V28.3007V28.2906V28.2805V28.2704V28.2603V28.2502V28.2401V28.23V28.22V28.2099V28.1998V28.1897V28.1796V28.1695V28.1594V28.1493V28.1393V28.1292V28.1191V28.109L5.79708 28.1695Z" fill="#D00725"/>
</svg>
