<svg width="63" height="84" viewBox="0 0 63 84" fill="none" xmlns="http://www.w3.org/2000/svg">
<path fill-rule="evenodd" clip-rule="evenodd" d="M11.1242 25.0005H24.8262C28.0635 25.0005 30.6984 27.6355 30.6984 30.8728V39.104C30.6984 40.7603 29.3433 42.1154 27.687 42.1154H13.9851C10.7478 42.1154 8.11279 39.4804 8.11279 36.2431V28.0119C8.11279 26.3556 9.46793 25.0005 11.1242 25.0005Z" fill="white"/>
<path fill-rule="evenodd" clip-rule="evenodd" d="M14.8626 69.1174L14.8877 51.9021V50.547L18.7273 52.2534L19.4048 81.665L24.1729 83.2209L23.5205 58.8033L26.2307 57.95L27.4604 78.9798C26.9334 78.9296 26.4315 78.9045 25.9798 78.8543C26.5068 80.0589 27.0589 81.2634 27.5859 82.468C28.5395 82.4931 29.3927 82.6437 30.246 82.7942C30.271 82.7441 30.3463 82.4931 30.3714 82.4429C31.8019 82.3927 33.0064 82.0414 33.5083 81.7653L34.4118 82.0665C35.1144 81.2383 35.5159 74.7387 35.7167 70.9242L32.4041 73.0322C32.379 74.5379 32.7806 77.4992 32.906 79.557C32.5296 79.4817 31.3752 79.3813 30.8984 79.3311L30.9235 57.147L32.8559 57.6991C32.8809 57.7493 32.3289 62.7432 32.3289 63.6466L35.9677 65.6542C35.9677 64.9265 35.9677 64.2991 35.9677 63.8725L35.9426 57.0968L39.2049 56.369L40.3091 57.3477L40.4848 57.5234L40.1084 57.7995L38.6277 58.8535C37.9502 67.0094 39.1798 73.2832 37.1471 82.0414C38.5525 81.8406 41.1875 81.5144 42.5928 81.3387C43.3707 80.7113 42.919 70.1212 43.0696 64.6003C43.8726 64.5752 46.7837 60.1835 47.3107 57.423L45.3783 57.7995C46.0057 53.9097 46.3571 49.6686 46.4072 49.0412C47.2103 51.074 47.7373 53.1569 47.7875 55.0892L49.6947 53.5082C49.1677 57.1972 49.1677 59.5059 45.7799 65.3029C52.4301 63.6717 58.5784 53.2321 60.7868 46.9333L58.5784 47.1842L61.0377 36.9203C63.0955 28.2875 61.891 25.5773 57.8757 17.4464C54.1867 9.99317 51.9282 4.29657 43.2703 2.48972C35.1646 0.808339 27.4604 -0.873037 20.3585 3.04181L14.0596 6.50494L14.0094 9.3156L13.8839 11.4236C13.9843 12.0008 15.1889 10.3194 15.3143 10.9217C16.0923 14.7863 17.2467 18.902 17.4223 19.5293C15.9668 17.8981 14.712 16.1164 13.9843 14.3346C13.4071 14.7362 13.1561 15.7902 12.7546 16.4928L9.7432 10.0183C4.64888 13.0799 2.18956 17.1453 1.26104 21.7377C-0.244674 29.1157 2.18956 37.7735 3.79565 45.6032L6.40555 46.7576V47.9371V49.3424L7.71049 49.8945L9.84358 50.7979V49.8945L9.81849 64.9014C7.6854 65.7546 8.31278 68.9166 10.5713 68.9417C12.4284 68.9417 13.382 66.7082 12.052 65.3782C11.801 65.1273 11.4748 64.9265 11.1234 64.8261L11.1485 48.9409V49.9447L9.84358 49.3926L7.71049 48.4892V47.3097L13.5577 49.8945L13.4824 69.1425C13.2063 69.2429 12.9805 69.3934 12.7797 69.5942C12.4033 69.9706 12.1774 70.4976 12.1523 71.0748C12.1523 71.652 12.3782 72.179 12.7546 72.5554C13.1311 72.9318 13.658 73.1577 14.2352 73.1828C14.8124 73.1828 15.3394 72.9569 15.7159 72.5805C16.0923 72.2041 16.3181 71.6771 16.3432 71.0999C16.3432 70.5227 16.1174 69.9957 15.7409 69.6193C15.49 69.3683 15.1638 69.1676 14.8124 69.0672L14.8626 69.1174ZM33.2072 41.6131L37.9 43.9469L42.3167 38.0496L47.8879 43.6207L51.2004 39.0283L45.3282 34.7621L51.5016 28.6389L46.4323 26.4054L42.5677 31.9013L35.541 27.083L34.6125 30.3704L39.8323 35.1887L33.2323 41.6382L33.2072 41.6131ZM10.0192 67.4862C10.8223 68.2892 12.0269 67.0847 11.2489 66.2816C10.4459 65.4786 9.2413 66.6832 10.0192 67.4862ZM32.8308 43.972C33.8597 45.026 33.7844 46.0298 34.5623 47.3348C35.4407 48.8154 35.8924 48.3135 34.6627 50.8983C34.4118 51.4504 34.3365 51.7013 33.7844 51.877C33.2072 52.2283 31.7768 51.2496 31.4756 51.35C31.1745 51.4504 29.5182 52.3789 29.5182 52.3789C28.941 52.3789 28.3136 50.8732 28.1129 50.3964C27.9623 50.0701 27.6862 49.4679 27.611 49.0914C27.4855 48.4641 27.7615 48.2884 28.0627 47.8618C29.5433 45.9294 29.2672 44.3234 30.9988 43.5454C31.7015 42.3157 32.2536 43.4199 32.8308 43.9971V43.972ZM23.2946 39.4298C24.1227 38.5766 24.6497 37.5979 24.976 36.5439C25.0764 36.1423 25.1767 35.7659 25.2018 35.3644L30.0703 38.0747C31.049 38.6268 27.5608 39.2792 23.2946 39.4298ZM18.4261 31.6754C18.0748 31.7256 17.7988 31.9013 17.5478 32.1522C16.7197 32.9803 16.3934 34.0594 16.3181 34.988C16.293 35.9165 16.5691 36.6442 17.0208 37.2214C17.8238 38.175 19.5052 38.6268 20.6345 37.3469C21.036 36.8701 21.287 36.318 21.4376 35.7157C21.6132 34.9629 21.5881 34.21 21.3372 33.4822C21.287 33.3568 21.2368 33.2313 21.1866 33.1058L18.5767 31.6503C18.5265 31.6503 18.4763 31.6503 18.4261 31.6754ZM15.2641 29.8184C13.6831 31.2237 12.8048 33.5826 12.6542 35.0883C12.6291 36.4435 12.9805 37.5979 13.633 38.5515C12.8048 38.3005 12.1021 37.9743 11.5752 37.5728L9.56754 26.6313L15.2641 29.8184ZM14.9128 70.4976H14.8877L14.8626 70.4725L14.8375 70.4474C14.8124 70.4223 14.7622 70.3972 14.7371 70.3972L14.687 70.3721H14.6368H14.5866H14.5364H14.5113H14.4862H14.4611H14.436H14.4109H14.3858H14.3607H14.3356H14.3105H14.2854H14.2603H14.2352H14.2101H14.185H14.16H14.1349H14.1098C13.9843 70.4223 13.8588 70.4976 13.7584 70.5729C13.658 70.6733 13.5828 70.7737 13.5577 70.9242V70.9493V70.9744V70.9995V71.0246V71.0497V71.0748V71.0999V71.125V71.1501V71.1752V71.2003V71.2254V71.2505V71.2756V71.3007V71.3258V71.3508V71.3759V71.401V71.4261V71.4512V71.4763V71.5014V71.5265V71.5516V71.5767V71.6018V71.6269L13.5828 71.6771V71.7022L13.6079 71.7524V71.7775V71.8026V71.8277V71.8528V71.8778L13.658 71.928H13.6831L13.7082 71.9531L13.7333 71.9782L13.7584 72.0033L13.7835 72.0284L13.8086 72.0535H13.8337H13.8588H13.8839H13.909H13.9341H13.9592H13.9843H14.0094H14.0345H14.0596H14.0847H14.1098H14.1349H14.16H14.185H14.2101H14.2352H14.2603H14.2854H14.3105H14.3356H14.3607H14.3858H14.4109H14.436H14.4611C14.5866 72.0033 14.712 71.928 14.8124 71.8528C14.9128 71.7524 14.9881 71.652 15.0132 71.5014V71.4763V71.4261V71.401V71.3258V71.3007V71.2756V71.2505V71.2254V71.2003V71.1752V71.1501V71.125V71.0999V71.0748V71.0497V71.0246V70.9995V70.9744V70.9493V70.9242V70.8991V70.874V70.8489V70.8239V70.7988V70.7737V70.7486V70.7235V70.6984V70.6733V70.6482V70.6231V70.598V70.5729V70.5478V70.5227V70.4976V70.4725V70.4474V70.4223V70.3972V70.3721V70.347L14.9128 70.4976Z" fill="#D00725"/>
</svg>
