<svg width="41" height="41" viewBox="0 0 41 41" fill="none" xmlns="http://www.w3.org/2000/svg">
<path d="M6.68445 6.93781V34.4378H34.1844V6.93781H6.68445ZM9.18445 9.43781H31.6844V31.9378H9.18445V9.43781ZM23.7963 13.9739C21.6088 13.9739 19.7865 15.9469 20.2953 18.3807C17.3203 18.2282 14.669 16.8069 12.9027 14.6307C12.5915 15.1607 12.4169 15.7723 12.4169 16.4398C12.4156 17.6398 13.0148 18.7606 14.0135 19.4256C13.4285 19.4043 12.8711 19.2414 12.3949 18.9739V19.0154C12.3949 20.7592 13.6247 22.2046 15.266 22.5384C14.6972 22.6871 14.1998 22.6868 13.6473 22.6043C14.1011 24.0268 15.4244 25.0596 16.9994 25.0921C15.7694 26.0546 14.2275 26.6229 12.5487 26.6229C12.2537 26.6229 11.9744 26.6139 11.6844 26.5814C13.2707 27.5989 15.1573 28.1878 17.1923 28.1878C23.7873 28.1878 27.3973 22.724 27.3973 17.9827C27.3973 17.829 27.3964 17.6726 27.3851 17.5189C28.0851 17.0101 28.697 16.3748 29.182 15.6585C28.537 15.9373 27.8391 16.1413 27.1166 16.2176C27.8603 15.7751 28.4238 15.0737 28.6913 14.2425C28.0025 14.6525 27.2246 14.953 26.4159 15.1068C25.7596 14.4068 24.83 13.9739 23.7963 13.9739Z" fill="#D00725"/>
</svg>
