<svg width="235" height="133" viewBox="0 0 235 133" fill="none" xmlns="http://www.w3.org/2000/svg">
<rect x="1.02504" y="1.26832" width="233.187" height="131.229" fill="white" stroke="black" stroke-width="0.715604"/>
<path d="M95.9683 54.6829V78.3763" stroke="black" stroke-width="0.715604"/>
<path d="M174.721 78.6021L174.721 104.326" stroke="black" stroke-width="0.715604"/>
<path d="M17.0552 12.4913C12.0207 12.4913 9.088 15.5218 9.088 20.7029V39.4722C9.088 44.6533 12.0207 47.6837 17.0552 47.6837C22.1385 47.6837 25.1201 44.6533 25.1201 39.4722V35.3664L20.1345 35.122V38.9345C20.1345 41.6717 19.1081 42.8937 17.2018 42.8937C15.2956 42.8937 14.2691 41.6717 14.2691 39.4233V20.7518C14.2691 18.5034 15.2956 17.2814 17.2018 17.2814C19.1081 17.2814 20.1345 18.5034 20.1345 21.2406V24.0266L25.1201 23.7822V20.7029C25.1201 15.5218 22.1385 12.4913 17.0552 12.4913ZM45.4214 12.9801H40.0448L35.8901 25.1019H35.7924L31.4422 12.9801H25.9678L33.1529 31.7005V47.1949H38.334V31.7494L45.4214 12.9801ZM54.9027 12.9801H47.6687V47.1949H55.2937C60.8658 47.1949 63.8963 44.1645 63.8963 38.5435V37.3704C63.8963 32.8736 62.5277 30.3319 59.3017 29.3544V29.2566C62.0389 28.3279 63.1631 26.0795 63.1631 22.267V21.6316C63.1631 16.0106 60.2793 12.9801 54.9027 12.9801ZM54.7071 17.7702C56.9555 17.7702 57.982 19.041 57.982 21.8271V22.9513C57.982 25.8351 56.9555 27.106 54.4628 27.106H52.8498V17.7702H54.7071ZM54.8538 31.896C57.591 31.896 58.7152 33.2646 58.7152 36.2951V38.2013C58.7152 41.0852 57.591 42.4049 55.0982 42.4049H52.8498V31.896H54.8538ZM82.6163 12.9801H68.0505V47.1949H82.6163V42.4049H73.2316V32.2382H80.8078V27.4481H73.2316V17.7702H82.6163V12.9801ZM104.157 47.1949L99.4155 31.6028C101.811 30.2342 103.081 27.6925 103.081 24.0755V21.6316C103.081 16.0106 100.051 12.9801 94.4788 12.9801H87.0005V47.1949H92.1816V32.727H94.5766L98.6824 47.1949H104.157ZM94.2833 17.7702C96.7761 17.7702 97.9003 19.0899 97.9003 21.9737V23.7333C97.9003 26.6172 96.7761 27.9369 94.2833 27.9369H92.1816V17.7702H94.2833ZM123.503 12.9801H118.322V39.3744C118.322 41.8672 117.198 42.7959 115.389 42.7959C113.581 42.7959 112.457 41.8672 112.457 39.3744V12.9801H107.471V39.521C107.471 44.8977 110.55 47.6837 115.438 47.6837C120.424 47.6837 123.503 44.8977 123.503 39.521V12.9801ZM145.63 12.9801H140.742V33.3624H140.644L134.534 12.9801H128.767V47.1949H133.654V24.5154H133.752L140.546 47.1949H145.63V12.9801ZM168.064 12.9801H163.176V33.3624H163.078L156.969 12.9801H151.201V47.1949H156.089V24.5154H156.187L162.981 47.1949H168.064V12.9801ZM188.201 12.9801H173.635V47.1949H188.201V42.4049H178.816V32.2382H186.393V27.4481H178.816V17.7702H188.201V12.9801ZM209.742 47.1949L205 31.6028C207.395 30.2342 208.666 27.6925 208.666 24.0755V21.6316C208.666 16.0106 205.636 12.9801 200.064 12.9801H192.585V47.1949H197.766V32.727H200.161L204.267 47.1949H209.742ZM199.868 17.7702C202.361 17.7702 203.485 19.0899 203.485 21.9737V23.7333C203.485 26.6172 202.361 27.9369 199.868 27.9369H197.766V17.7702H199.868ZM219.601 12.4913C214.664 12.4913 211.878 15.2774 211.878 20.1652V20.8984C211.878 24.9064 213.491 27.7414 218.232 31.7494C221.703 34.6821 222.729 36.3928 222.729 38.5435V39.6677C222.729 41.8183 221.752 42.8937 219.796 42.8937C217.841 42.8937 216.864 41.8183 216.864 39.6677V37.2238L211.878 37.7125V40.0098C211.878 44.8977 214.762 47.6837 219.894 47.6837C225.026 47.6837 227.91 44.8977 227.91 40.0098V38.2991C227.91 34.1933 226.151 31.3584 221.409 27.3503C217.939 24.4176 217.059 22.7069 217.059 20.7029V20.263C217.059 18.3078 217.988 17.2814 219.699 17.2814C221.409 17.2814 222.338 18.3078 222.338 20.263V21.5338L227.324 21.045V20.1652C227.324 15.2774 224.538 12.4913 219.601 12.4913Z" fill="#D00725"/>
<path d="M8.70257 60.1374V63.4855C8.70257 64.1534 8.48288 64.3467 7.82381 64.3467H7.10323V65.2958H7.82381C9.42316 65.2958 9.80981 64.7509 9.80981 63.4592V60.1374H8.70257ZM11.2407 63.4592C11.2407 64.7509 11.6186 65.2958 13.2179 65.2958H14.7118C16.3199 65.2958 16.6978 64.7509 16.6978 63.4592V61.9741C16.6978 60.6823 16.3199 60.1374 14.7118 60.1374H13.2179C11.6186 60.1374 11.2407 60.6823 11.2407 61.9741V63.4592ZM15.5993 63.4855C15.5993 64.1534 15.3797 64.3467 14.7118 64.3467H13.2179C12.5588 64.3467 12.3391 64.1534 12.3391 63.4855V61.9565C12.3391 61.2886 12.5588 61.0865 13.2179 61.0865H14.7118C15.3797 61.0865 15.5993 61.2886 15.5993 61.9565V63.4855ZM19.3375 65.2958V60.1374H18.2391V65.2958H19.3375ZM26.212 65.2958V60.1374H25.1135V63.7843L22.1697 60.1374H21.0536V65.2958H22.1521V61.6577L25.0959 65.2958H26.212ZM6.93626 70.0865H8.9662V74.2958H10.0647V70.0865H12.0946V69.1374H6.93626V70.0865ZM14.1454 74.2958V72.1867H17.1068V74.2958H18.2053V69.1374H17.1068V71.2289H14.1454V69.1374H13.047V74.2958H14.1454ZM24.8605 73.3467H21.6882C21.0291 73.3467 20.8094 73.1534 20.8094 72.4855V72.1867H24.4739V71.2289H20.8094V70.9565C20.8094 70.2886 21.0291 70.0865 21.6882 70.0865H24.8605V69.1374H21.6882C20.0889 69.1374 19.711 69.6823 19.711 70.9741V72.4592C19.711 73.7509 20.0889 74.2958 21.6882 74.2958H24.8605V73.3467ZM32.7236 69.1374V72.4855C32.7236 73.1534 32.4951 73.3467 31.836 73.3467H30.6409C29.9819 73.3467 29.7622 73.1534 29.7622 72.4855V69.1374H28.6637V72.4592C28.6637 73.7509 29.0416 74.2958 30.6409 74.2958H31.836C33.4442 74.2958 33.822 73.7509 33.822 72.4592V69.1374H32.7236ZM36.5092 74.2958V72.8458H38.3634C39.954 72.8458 40.3406 72.3098 40.3406 71.0795V70.9038C40.3406 69.6823 39.954 69.1374 38.3634 69.1374H35.4108V74.2958H36.5092ZM38.3634 70.0865C39.0225 70.0865 39.2422 70.2007 39.2422 70.8774V71.1059C39.2422 71.7825 39.0225 71.8968 38.3634 71.8968H36.5092V70.0865H38.3634ZM46.5376 74.2958L44.9646 72.6789C46.2388 72.5822 46.5727 72.0286 46.5727 71.0092V70.8247C46.5727 69.6735 46.1861 69.1374 44.5955 69.1374H41.5638V74.2958H42.6623V72.6876H43.4971L45.0173 74.2958H46.5376ZM44.5955 70.0865C45.2546 70.0865 45.4743 70.2183 45.4743 70.8071V71.0268C45.4743 71.6331 45.2546 71.7474 44.5955 71.7474H42.6623V70.0865H44.5955ZM49.073 74.2958V69.1374H47.9745V74.2958H49.073ZM55.2796 69.1374H52.5642C50.9736 69.1374 50.5167 69.6823 50.5167 70.6753C50.5167 71.6595 50.9736 72.1955 52.5642 72.1955H53.6011C54.269 72.1955 54.5678 72.3186 54.5678 72.7667C54.5678 73.2149 54.269 73.3467 53.6011 73.3467H50.5167V74.2958H53.6011C55.2093 74.2958 55.6662 73.7422 55.6662 72.7579C55.6662 71.7649 55.2005 71.2377 53.6011 71.2377H52.5642C51.8963 71.2377 51.6063 71.0971 51.6063 70.6665C51.6063 70.2183 51.8963 70.0865 52.5642 70.0865H55.2796V69.1374ZM58.0751 74.2958V69.1374H56.9767V74.2958H58.0751ZM64.9496 74.2958V69.1374H63.8511V72.7843L60.9073 69.1374H59.7912V74.2958H60.8897V70.6577L63.8335 74.2958H64.9496ZM71.6136 74.2958V71.7474H70.5152V73.3467H68.4325C67.7734 73.3467 67.5537 73.1534 67.5537 72.4855V70.9565C67.5537 70.2886 67.7734 70.0865 68.4325 70.0865H71.6136V69.1374H68.4325C66.8331 69.1374 66.4553 69.6823 66.4553 70.9741V72.4592C66.4553 73.7509 66.8331 74.2958 68.4325 74.2958H71.6136Z" fill="black"/>
<path d="M111.555 61.2958V60.2172H113.2V59.7274H111.555V59.1432H113.397V58.6578H110.993V61.2958H111.555ZM116.522 60.8104H114.9C114.563 60.8104 114.45 60.7116 114.45 60.37V60.2172H116.324V59.7274H114.45V59.5881C114.45 59.2465 114.563 59.1432 114.9 59.1432H116.522V58.6578H114.9C114.082 58.6578 113.889 58.9364 113.889 59.597V60.3565C113.889 61.0171 114.082 61.2958 114.9 61.2958H116.522V60.8104ZM120.209 61.2958L118.843 58.6578H118.196L116.834 61.2958H117.468L117.774 60.6981H119.27L119.576 61.2958H120.209ZM118.52 59.2196L119.05 60.2711H117.989L118.52 59.2196ZM120.074 59.1432H121.112V61.2958H121.674V59.1432H122.712V58.6578H120.074V59.1432ZM125.235 58.6578V60.37C125.235 60.7116 125.118 60.8104 124.781 60.8104H124.17C123.833 60.8104 123.72 60.7116 123.72 60.37V58.6578H123.159V60.3565C123.159 61.0171 123.352 61.2958 124.17 61.2958H124.781C125.603 61.2958 125.796 61.0171 125.796 60.3565V58.6578H125.235ZM129.153 61.2958L128.348 60.4689C129 60.4194 129.171 60.1363 129.171 59.615V59.5206C129.171 58.9319 128.973 58.6578 128.159 58.6578H126.609V61.2958H127.171V60.4734H127.598L128.375 61.2958H129.153ZM128.159 59.1432C128.496 59.1432 128.609 59.2106 128.609 59.5117V59.624C128.609 59.9341 128.496 59.9925 128.159 59.9925H127.171V59.1432H128.159ZM130.449 61.2958V58.6578H129.887V61.2958H130.449ZM133.965 61.2958V58.6578H133.403V60.5228L131.898 58.6578H131.327V61.2958H131.889V59.4353L133.394 61.2958H133.965ZM137.373 61.2958V59.9925H136.811V60.8104H135.746C135.409 60.8104 135.297 60.7116 135.297 60.37V59.5881C135.297 59.2465 135.409 59.1432 135.746 59.1432H137.373V58.6578H135.746C134.928 58.6578 134.735 58.9364 134.735 59.597V60.3565C134.735 61.0171 134.928 61.2958 135.746 61.2958H137.373Z" fill="black"/>
<path d="M111.593 67.4533V73.4518H115.292C117.152 73.4518 117.592 72.8182 117.592 71.316V69.5891C117.592 68.0869 117.152 67.4533 115.292 67.4533H111.593ZM115.292 68.557C116.038 68.557 116.314 68.792 116.314 69.5686V71.3467C116.314 72.1233 116.038 72.3481 115.292 72.3481H112.871V68.557H115.292ZM122.628 73.4518V70.8766L125.601 67.4533H123.864L122.004 69.865L120.145 67.4533H118.397L121.35 70.8869V73.4518H122.628ZM131.515 67.4533H128.357C126.507 67.4533 125.976 68.0869 125.976 69.2416C125.976 70.3861 126.507 71.0095 128.357 71.0095H129.563C130.339 71.0095 130.687 71.1525 130.687 71.6737C130.687 72.1949 130.339 72.3481 129.563 72.3481H125.976V73.4518H129.563C131.433 73.4518 131.964 72.808 131.964 71.6635C131.964 70.5088 131.423 69.8956 129.563 69.8956H128.357C127.58 69.8956 127.243 69.7321 127.243 69.2314C127.243 68.7102 127.58 68.557 128.357 68.557H131.515V67.4533ZM132.599 68.557H134.96V73.4518H136.237V68.557H138.598V67.4533H132.599V68.557ZM139.501 71.316C139.501 72.8182 139.94 73.4518 141.8 73.4518H143.537C145.407 73.4518 145.847 72.8182 145.847 71.316V69.5891C145.847 68.0869 145.407 67.4533 143.537 67.4533H141.8C139.94 67.4533 139.501 68.0869 139.501 69.5891V71.316ZM144.569 71.3467C144.569 72.1233 144.314 72.3481 143.537 72.3481H141.8C141.033 72.3481 140.778 72.1233 140.778 71.3467V69.5686C140.778 68.792 141.033 68.557 141.8 68.557H143.537C144.314 68.557 144.569 68.792 144.569 69.5686V71.3467ZM148.906 73.4518V71.7657H151.062C152.912 71.7657 153.361 71.1423 153.361 69.7117V69.5073C153.361 68.0869 152.912 67.4533 151.062 67.4533H147.629V73.4518H148.906ZM151.062 68.557C151.829 68.557 152.084 68.6898 152.084 69.4767V69.7423C152.084 70.5292 151.829 70.662 151.062 70.662H148.906V68.557H151.062ZM156.071 73.4518V67.4533H154.794V73.4518H156.071ZM164.801 73.4518L161.695 67.4533H160.223L157.127 73.4518H158.568L159.263 72.0927H162.665L163.36 73.4518H164.801ZM160.959 68.7307L162.165 71.1219H159.753L160.959 68.7307ZM171.839 73.4518V67.4533H170.562V71.6941L167.139 67.4533H165.841V73.4518H167.118V69.2212L170.542 73.4518H171.839ZM182.095 72.3481H178.754C177.987 72.3481 177.732 72.1233 177.732 71.3467V69.5686C177.732 68.792 177.987 68.557 178.754 68.557H182.095V67.4533H178.754C176.894 67.4533 176.454 68.0869 176.454 69.5891V71.316C176.454 72.8182 176.894 73.4518 178.754 73.4518H182.095V72.3481ZM183.534 73.4518H188.378V72.3481H184.822V67.4533H183.534V73.4518ZM196.136 73.4518L193.03 67.4533H191.558L188.462 73.4518H189.903L190.598 72.0927H194.001L194.695 73.4518H196.136ZM192.294 68.7307L193.5 71.1219H191.088L192.294 68.7307ZM202.398 67.4533H199.24C197.391 67.4533 196.859 68.0869 196.859 69.2416C196.859 70.3861 197.391 71.0095 199.24 71.0095H200.446C201.223 71.0095 201.57 71.1525 201.57 71.6737C201.57 72.1949 201.223 72.3481 200.446 72.3481H196.859V73.4518H200.446C202.316 73.4518 202.847 72.808 202.847 71.6635C202.847 70.5088 202.306 69.8956 200.446 69.8956H199.24C198.464 69.8956 198.126 69.7321 198.126 69.2314C198.126 68.7102 198.464 68.557 199.24 68.557H202.398V67.4533ZM209.583 67.4533H206.425C204.576 67.4533 204.044 68.0869 204.044 69.2416C204.044 70.3861 204.576 71.0095 206.425 71.0095H207.631C208.408 71.0095 208.755 71.1525 208.755 71.6737C208.755 72.1949 208.408 72.3481 207.631 72.3481H204.044V73.4518H207.631C209.501 73.4518 210.033 72.808 210.033 71.6635C210.033 70.5088 209.491 69.8956 207.631 69.8956H206.425C205.649 69.8956 205.311 69.7321 205.311 69.2314C205.311 68.7102 205.649 68.557 206.425 68.557H209.583V67.4533ZM212.834 73.4518V67.4533H211.556V73.4518H212.834ZM220.276 72.3481H216.934C216.168 72.3481 215.913 72.1233 215.913 71.3467V69.5686C215.913 68.792 216.168 68.557 216.934 68.557H220.276V67.4533H216.934C215.075 67.4533 214.635 68.0869 214.635 69.5891V71.316C214.635 72.8182 215.075 73.4518 216.934 73.4518H220.276V72.3481ZM226.937 67.4533H223.779C221.93 67.4533 221.398 68.0869 221.398 69.2416C221.398 70.3861 221.93 71.0095 223.779 71.0095H224.985C225.762 71.0095 226.109 71.1525 226.109 71.6737C226.109 72.1949 225.762 72.3481 224.985 72.3481H221.398V73.4518H224.985C226.855 73.4518 227.387 72.808 227.387 71.6635C227.387 70.5088 226.845 69.8956 224.985 69.8956H223.779C223.003 69.8956 222.665 69.7321 222.665 69.2314C222.665 68.7102 223.003 68.557 223.779 68.557H226.937V67.4533Z" fill="black"/>
<path d="M185.506 85.3019C183.744 85.3019 182.663 86.4157 182.663 88.2443V94.3285C182.663 96.1571 183.744 97.2708 185.506 97.2708C187.268 97.2708 188.348 96.1571 188.348 94.3285V88.2443C188.348 86.4157 187.268 85.3019 185.506 85.3019ZM185.506 86.931C186.204 86.931 186.586 87.3965 186.586 88.2609V94.3119C186.586 95.1763 186.204 95.6417 185.506 95.6417C184.808 95.6417 184.425 95.1763 184.425 94.3119V88.2609C184.425 87.3965 184.808 86.931 185.506 86.931ZM192.714 85.3019C190.951 85.3019 189.871 86.4157 189.871 88.2443V94.3285C189.871 96.1571 190.951 97.2708 192.714 97.2708C194.476 97.2708 195.556 96.1571 195.556 94.3285V88.2443C195.556 86.4157 194.476 85.3019 192.714 85.3019ZM192.714 86.931C193.412 86.931 193.794 87.3965 193.794 88.2609V94.3119C193.794 95.1763 193.412 95.6417 192.714 95.6417C192.015 95.6417 191.633 95.1763 191.633 94.3119V88.2609C191.633 87.3965 192.015 86.931 192.714 86.931ZM199.921 85.3019C198.159 85.3019 197.079 86.4157 197.079 88.2443V94.3285C197.079 96.1571 198.159 97.2708 199.921 97.2708C201.684 97.2708 202.764 96.1571 202.764 94.3285V88.2443C202.764 86.4157 201.684 85.3019 199.921 85.3019ZM199.921 86.931C200.62 86.931 201.002 87.3965 201.002 88.2609V94.3119C201.002 95.1763 200.62 95.6417 199.921 95.6417C199.223 95.6417 198.841 95.1763 198.841 94.3119V88.2609C198.841 87.3965 199.223 86.931 199.921 86.931ZM207.129 85.3019C205.367 85.3019 204.287 86.4157 204.287 88.2443V94.3285C204.287 96.1571 205.367 97.2708 207.129 97.2708C208.891 97.2708 209.972 96.1571 209.972 94.3285V88.2443C209.972 86.4157 208.891 85.3019 207.129 85.3019ZM207.129 86.931C207.827 86.931 208.21 87.3965 208.21 88.2609V94.3119C208.21 95.1763 207.827 95.6417 207.129 95.6417C206.431 95.6417 206.049 95.1763 206.049 94.3119V88.2609C206.049 87.3965 206.431 86.931 207.129 86.931ZM214.337 85.3019C212.575 85.3019 211.495 86.4157 211.495 88.2443V94.3285C211.495 96.1571 212.575 97.2708 214.337 97.2708C216.099 97.2708 217.18 96.1571 217.18 94.3285V88.2443C217.18 86.4157 216.099 85.3019 214.337 85.3019ZM214.337 86.931C215.035 86.931 215.418 87.3965 215.418 88.2609V94.3119C215.418 95.1763 215.035 95.6417 214.337 95.6417C213.639 95.6417 213.257 95.1763 213.257 94.3119V88.2609C213.257 87.3965 213.639 86.931 214.337 86.931ZM221.545 85.3019C219.783 85.3019 218.702 86.4157 218.702 88.2443V94.3285C218.702 96.1571 219.783 97.2708 221.545 97.2708C223.307 97.2708 224.388 96.1571 224.388 94.3285V88.2443C224.388 86.4157 223.307 85.3019 221.545 85.3019ZM221.545 86.931C222.243 86.931 222.625 87.3965 222.625 88.2609V94.3119C222.625 95.1763 222.243 95.6417 221.545 95.6417C220.847 95.6417 220.464 95.1763 220.464 94.3119V88.2609C220.464 87.3965 220.847 86.931 221.545 86.931Z" fill="black"/>
<rect width="99.469" height="15.7433" transform="translate(9.5542 109.124)" fill="black"/>
<path d="M29.7351 116.063H29.1551L29.6384 114.543H28.9442L28.4609 116.063H27.6437L28.127 114.543H27.4328L26.9494 116.063H26.1849V116.819H26.721L26.4749 117.575H25.7016V118.331H26.2376L25.807 119.702H26.5101L26.9406 118.331H27.7491L27.3185 119.702H28.0215L28.4521 118.331H29.2606V117.575H28.6806L28.9266 116.819H29.7351V116.063ZM27.4152 116.819H28.2324L27.9864 117.575H27.1691L27.4152 116.819ZM30.2341 115.492H32.264V119.702H33.3625V115.492H35.3924V114.543H30.2341V115.492ZM37.4432 119.702V117.593H40.4047V119.702H41.5031V114.543H40.4047V116.635H37.4432V114.543H36.3448V119.702H37.4432ZM48.1584 118.752H44.986C44.3269 118.752 44.1073 118.559 44.1073 117.891V117.593H47.7717V116.635H44.1073V116.362C44.1073 115.694 44.3269 115.492 44.986 115.492H48.1584V114.543H44.986C43.3867 114.543 43.0088 115.088 43.0088 116.38V117.865C43.0088 119.157 43.3867 119.702 44.986 119.702H48.1584V118.752ZM53.5585 114.543V117.891C53.5585 118.559 53.33 118.752 52.6709 118.752H51.4758C50.8167 118.752 50.5971 118.559 50.5971 117.891V114.543H49.4986V117.865C49.4986 119.157 49.8765 119.702 51.4758 119.702H52.6709C54.2791 119.702 54.6569 119.157 54.6569 117.865V114.543H53.5585ZM57.3441 119.702V118.252H59.1983C60.7888 118.252 61.1755 117.716 61.1755 116.485V116.31C61.1755 115.088 60.7888 114.543 59.1983 114.543H56.2456V119.702H57.3441ZM59.1983 115.492C59.8573 115.492 60.077 115.607 60.077 116.283V116.512C60.077 117.188 59.8573 117.303 59.1983 117.303H57.3441V115.492H59.1983ZM67.3725 119.702L65.7995 118.085C67.0737 117.988 67.4076 117.434 67.4076 116.415V116.23C67.4076 115.079 67.021 114.543 65.4304 114.543H62.3987V119.702H63.4971V118.093H64.332L65.8522 119.702H67.3725ZM65.4304 115.492C66.0895 115.492 66.3092 115.624 66.3092 116.213V116.433C66.3092 117.039 66.0895 117.153 65.4304 117.153H63.4971V115.492H65.4304ZM69.9078 119.702V114.543H68.8094V119.702H69.9078ZM76.1144 114.543H73.3991C71.8085 114.543 71.3516 115.088 71.3516 116.081C71.3516 117.065 71.8085 117.601 73.3991 117.601H74.436C75.1039 117.601 75.4026 117.724 75.4026 118.172C75.4026 118.621 75.1039 118.752 74.436 118.752H71.3516V119.702H74.436C76.0441 119.702 76.5011 119.148 76.5011 118.164C76.5011 117.171 76.0354 116.643 74.436 116.643H73.3991C72.7312 116.643 72.4412 116.503 72.4412 116.072C72.4412 115.624 72.7312 115.492 73.3991 115.492H76.1144V114.543ZM78.91 119.702V114.543H77.8115V119.702H78.91ZM85.7845 119.702V114.543H84.686V118.19L81.7422 114.543H80.6261V119.702H81.7246V116.063L84.6684 119.702H85.7845ZM92.4485 119.702V117.153H91.35V118.752H89.2674C88.6083 118.752 88.3886 118.559 88.3886 117.891V116.362C88.3886 115.694 88.6083 115.492 89.2674 115.492H92.4485V114.543H89.2674C87.668 114.543 87.2902 115.088 87.2902 116.38V117.865C87.2902 119.157 87.668 119.702 89.2674 119.702H92.4485Z" fill="#D00725"/>
<path d="M193.458 107.784C188.376 107.784 184.247 111.913 184.247 116.995C184.247 122.078 188.376 126.206 193.458 126.206C198.54 126.206 202.669 122.078 202.669 116.995C202.669 111.913 198.54 107.784 193.458 107.784ZM193.058 108.632V112.181H190.192C190.343 111.735 190.514 111.32 190.702 110.944C191.361 109.626 192.196 108.824 193.058 108.632ZM193.859 108.632C194.72 108.824 195.555 109.626 196.214 110.944C196.402 111.32 196.573 111.735 196.724 112.181H193.859V108.632ZM191.128 108.914C190.696 109.367 190.311 109.933 189.985 110.586C189.743 111.069 189.534 111.607 189.352 112.181H186.565C187.655 110.623 189.255 109.452 191.128 108.914ZM195.788 108.914C197.661 109.452 199.261 110.623 200.351 112.181H197.564C197.382 111.607 197.173 111.069 196.931 110.586C196.605 109.933 196.22 109.367 195.788 108.914ZM186.055 112.999H189.122C188.851 114.096 188.693 115.311 188.664 116.595H185.061C185.121 115.297 185.472 114.077 186.055 112.999ZM189.949 112.999H193.058V116.595H189.466C189.496 115.298 189.666 114.076 189.949 112.999ZM193.859 112.999H196.967C197.25 114.076 197.42 115.298 197.45 116.595H193.859V112.999ZM197.794 112.999H200.861C201.444 114.077 201.795 115.297 201.856 116.595H198.252C198.223 115.311 198.065 114.096 197.794 112.999ZM185.064 117.396H188.662C188.691 118.68 188.851 119.894 189.122 120.991H186.055C185.473 119.914 185.125 118.693 185.064 117.396ZM189.463 117.396H193.058V120.991H189.949C189.666 119.914 189.494 118.693 189.463 117.396ZM193.859 117.396H197.453C197.422 118.693 197.251 119.914 196.967 120.991H193.859V117.396ZM198.254 117.396H201.852C201.791 118.693 201.443 119.914 200.861 120.991H197.794C198.066 119.894 198.226 118.68 198.254 117.396ZM186.568 121.81H189.352C189.534 122.383 189.743 122.921 189.985 123.404C190.311 124.057 190.696 124.623 191.128 125.077C189.256 124.539 187.657 123.366 186.568 121.81ZM190.192 121.81H193.058V125.358C192.196 125.167 191.361 124.364 190.702 123.046C190.514 122.671 190.343 122.256 190.192 121.81ZM193.859 121.81H196.724C196.573 122.256 196.402 122.671 196.214 123.046C195.555 124.364 194.72 125.167 193.859 125.358V121.81ZM197.564 121.81H200.348C199.259 123.366 197.661 124.539 195.788 125.077C196.22 124.623 196.605 124.057 196.931 123.404C197.173 122.921 197.382 122.383 197.564 121.81Z" fill="black"/>
<g clip-path="url(#clip0_61:121)">
<path d="M209.051 108.585C208.392 108.585 207.849 109.128 207.849 109.787C207.849 110.445 208.392 110.988 209.051 110.988C209.152 110.988 209.249 110.971 209.343 110.947L210.258 112.322C210.16 112.468 210.077 112.618 210.042 112.779C210.042 112.781 210.044 112.782 210.045 112.784C209.923 113.097 209.852 113.435 209.852 113.791C209.852 114.012 210.031 114.192 210.252 114.192C210.473 114.192 210.652 114.012 210.652 113.791C210.652 113.669 210.665 113.55 210.687 113.435C211.075 113.83 211.463 114.223 211.855 114.624C211.859 114.742 211.866 114.86 211.879 114.976C211.88 114.982 211.88 114.99 211.88 114.997C211.952 115.597 212.167 116.139 212.461 116.62C212.369 116.79 212.254 116.936 212.254 117.195C212.254 118.004 212.552 118.752 213.055 119.299V120.362C211.402 121.751 209.65 123.091 208.25 123.803C209.917 123.803 211.549 123.467 213.332 122.505C213.356 122.549 213.376 122.594 213.399 122.639C213.598 123.001 213.858 123.368 214.138 123.705C214.416 124.041 214.71 124.345 214.989 124.574C215.267 124.804 215.474 125.005 215.859 125.005H218.262C218.64 125.005 218.85 124.811 219.13 124.584C219.408 124.357 219.702 124.058 219.982 123.723C220.14 123.534 220.295 123.337 220.438 123.137C220.851 124.266 221.866 125.005 221.866 125.005V123.403C221.866 123.284 221.885 123.163 221.916 123.04C223.272 123.592 224.56 123.803 225.871 123.803C224.887 123.303 223.724 122.486 222.548 121.565C222.817 120.962 223.067 120.262 223.067 119.398C223.067 117.485 222.29 114.678 222.273 114.614C222.662 114.218 223.049 113.827 223.435 113.435C223.455 113.55 223.468 113.669 223.468 113.791C223.468 114.012 223.648 114.192 223.868 114.192C224.089 114.192 224.269 114.012 224.269 113.791C224.269 113.435 224.197 113.097 224.075 112.784C224.076 112.782 224.078 112.781 224.079 112.779C224.043 112.62 223.961 112.468 223.862 112.322L224.777 110.947C224.871 110.971 224.968 110.988 225.07 110.988C225.728 110.988 226.271 110.445 226.271 109.787C226.271 109.128 225.728 108.585 225.07 108.585C224.411 108.585 223.868 109.128 223.868 109.787C223.868 109.971 223.914 110.143 223.989 110.3L222.903 111.384C222.75 111.291 222.582 111.219 222.41 111.158C222.407 111.157 222.377 111.14 222.377 111.14L222.373 111.144C222.086 111.046 221.783 110.988 221.465 110.988C221.245 110.988 221.065 111.168 221.065 111.388C221.065 111.609 221.245 111.789 221.465 111.789C221.575 111.789 221.681 111.8 221.786 111.817C221.678 111.941 221.52 112.116 221.384 112.269C221.174 112.025 220.938 111.805 220.679 111.614C219.766 110.943 218.617 110.587 217.54 110.587H216.58C215.504 110.587 214.354 110.943 213.442 111.614C213.182 111.805 212.946 112.025 212.736 112.269C212.6 112.116 212.442 111.941 212.334 111.817C212.439 111.8 212.545 111.789 212.655 111.789C212.875 111.789 213.055 111.609 213.055 111.388C213.055 111.168 212.875 110.988 212.655 110.988C212.337 110.988 212.034 111.046 211.748 111.144L211.743 111.14C211.743 111.14 211.713 111.157 211.71 111.158C211.538 111.219 211.371 111.291 211.217 111.384L210.13 110.3C210.207 110.143 210.252 109.971 210.252 109.787C210.252 109.128 209.709 108.585 209.051 108.585ZM209.051 109.386C209.276 109.386 209.451 109.561 209.451 109.787C209.451 110.012 209.276 110.187 209.051 110.187C208.825 110.187 208.65 110.012 208.65 109.787C208.65 109.561 208.825 109.386 209.051 109.386ZM225.07 109.386C225.295 109.386 225.47 109.561 225.47 109.787C225.47 110.012 225.295 110.187 225.07 110.187C224.844 110.187 224.669 110.012 224.669 109.787C224.669 109.561 224.844 109.386 225.07 109.386ZM216.58 111.388H217.54C218.435 111.388 219.447 111.701 220.204 112.258C220.453 112.443 220.671 112.651 220.857 112.879C220.908 112.945 220.952 113.017 221.001 113.086C220.161 112.635 218.886 112.189 217.06 112.189C215.235 112.189 213.96 112.635 213.119 113.086C213.168 113.017 213.212 112.945 213.263 112.879C213.45 112.651 213.667 112.443 213.916 112.258C214.673 111.701 215.685 111.388 216.58 111.388ZM211.721 112.031C211.89 112.225 212.112 112.474 212.373 112.767C212.17 113.095 212.021 113.46 211.935 113.852C211.594 113.505 211.253 113.158 210.917 112.815C211.105 112.482 211.381 112.211 211.721 112.031ZM222.399 112.031C222.737 112.211 223.016 112.482 223.203 112.815C222.867 113.158 222.526 113.505 222.185 113.852C222.099 113.46 221.95 113.095 221.747 112.767C222.008 112.476 222.23 112.225 222.399 112.031ZM217.06 112.99C219.602 112.99 220.962 113.916 221.451 114.34C221.458 114.415 221.465 114.491 221.465 114.569C221.465 114.577 221.464 114.584 221.464 114.592H212.656C212.656 114.584 212.655 114.577 212.655 114.569C212.655 114.491 212.663 114.415 212.669 114.34C213.159 113.916 214.518 112.99 217.06 112.99ZM212.774 115.393H221.346C221.323 115.475 221.298 115.554 221.268 115.636C221.27 115.634 221.271 115.633 221.271 115.631C221.179 115.884 221.06 116.125 220.908 116.351L220.746 116.595L220.929 116.826C221.016 116.934 221.065 117.055 221.065 117.195C221.065 117.317 221.052 117.436 221.038 117.552C221.032 117.59 221.027 117.627 221.021 117.663C221.007 117.738 220.988 117.81 220.969 117.882C220.937 117.999 220.899 118.114 220.851 118.222C220.851 118.222 220.849 118.223 220.849 118.225C220.711 118.53 220.514 118.793 220.273 118.993V118.994C220.255 119.01 220.236 119.029 220.215 119.043C220.192 119.062 220.172 119.08 220.147 119.096C220.1 119.13 220.048 119.16 219.996 119.19C219.943 119.22 219.888 119.246 219.832 119.271C219.795 119.287 219.759 119.304 219.72 119.318C219.616 119.354 219.511 119.385 219.4 119.403L219.063 119.456V121.4C219.063 121.566 218.962 121.709 218.818 121.77C218.77 121.79 218.717 121.801 218.662 121.801H215.458C215.236 121.801 215.066 121.632 215.059 121.411C215.059 121.408 215.058 121.405 215.058 121.4V119.456L214.72 119.403C214.624 119.387 214.534 119.359 214.444 119.329C214.401 119.315 214.358 119.301 214.316 119.284C214.307 119.279 214.297 119.276 214.288 119.271C214.232 119.246 214.177 119.22 214.124 119.19C214.072 119.16 214.021 119.13 213.974 119.096C213.949 119.08 213.928 119.062 213.905 119.043C213.847 118.999 213.789 118.952 213.736 118.899L213.7 118.865C213.298 118.456 213.055 117.863 213.055 117.195C213.055 117.111 213.182 116.836 213.191 116.826L213.376 116.596L213.212 116.351C213.06 116.125 212.941 115.884 212.849 115.631C212.849 115.633 212.85 115.634 212.852 115.636C212.822 115.556 212.797 115.475 212.774 115.393ZM215.263 116.194C215.105 116.197 214.925 116.207 214.75 116.233C214.573 116.26 214.398 116.296 214.222 116.394C214.049 116.495 213.861 116.721 213.859 116.983C213.842 117.585 214.032 118.034 214.332 118.29C214.634 118.55 214.986 118.597 215.227 118.597H215.583C216.167 118.597 216.66 118.118 216.66 117.494V117.26C216.66 117.051 216.605 116.829 216.452 116.609C216.298 116.39 216.003 116.194 215.651 116.194C215.558 116.194 215.421 116.191 215.263 116.194ZM218.47 116.194C218.118 116.194 217.822 116.39 217.669 116.609C217.515 116.829 217.461 117.051 217.461 117.26V117.494C217.461 118.118 217.953 118.597 218.537 118.597H218.895C219.136 118.597 219.486 118.55 219.788 118.29C220.09 118.034 220.278 117.585 220.261 116.983C220.259 116.721 220.072 116.495 219.898 116.394C219.723 116.296 219.547 116.26 219.371 116.233C219.02 116.182 218.654 116.194 218.47 116.194ZM221.888 116.457C222.079 117.372 222.266 118.502 222.266 119.398C222.266 120.11 222.065 120.69 221.822 121.231C221.817 121.239 221.811 121.241 221.808 121.25C221.797 121.272 221.781 121.317 221.77 121.344C221.713 121.468 221.655 121.593 221.595 121.715C221.423 122.073 221.256 122.42 221.157 122.774C221.099 122.592 221.065 122.4 221.065 122.201V121.563C221.065 121.56 221.065 121.558 221.065 121.555V119.34C221.472 118.894 221.733 118.323 221.827 117.698C221.828 117.687 221.828 117.676 221.83 117.665C221.852 117.51 221.866 117.355 221.866 117.195C221.866 117.167 221.864 117.139 221.861 117.114C221.864 117.075 221.866 117.036 221.866 116.995C221.866 116.851 221.852 116.714 221.824 116.582C221.847 116.54 221.867 116.499 221.888 116.457ZM215.651 116.995C215.748 116.995 215.757 117.015 215.796 117.07C215.834 117.123 215.859 117.233 215.859 117.26V117.494C215.859 117.649 215.666 117.796 215.583 117.796H215.227C215.098 117.796 214.948 117.765 214.851 117.682C214.762 117.605 214.673 117.444 214.668 117.078C214.709 117.061 214.767 117.04 214.865 117.026C215.111 116.989 215.441 116.995 215.651 116.995ZM218.47 116.995C218.679 116.995 219.009 116.989 219.255 117.026C219.353 117.04 219.411 117.062 219.452 117.078C219.447 117.444 219.358 117.605 219.269 117.682C219.172 117.765 219.022 117.796 218.895 117.796H218.537C218.454 117.796 218.262 117.649 218.262 117.494V117.26C218.262 117.233 218.287 117.123 218.324 117.07C218.363 117.015 218.373 116.995 218.47 116.995ZM217.06 118.597C216.797 118.597 216.591 118.738 216.448 118.888C216.306 119.038 216.206 119.21 216.121 119.39C215.956 119.748 215.859 120.108 215.859 120.421C215.859 120.502 215.865 120.587 215.906 120.687C215.946 120.787 216.045 120.904 216.161 120.956C216.395 121.061 216.533 120.984 216.63 120.95C216.827 120.884 216.976 120.822 217.06 120.822C217.145 120.822 217.293 120.884 217.49 120.95C217.587 120.984 217.725 121.061 217.96 120.956C218.075 120.904 218.174 120.787 218.215 120.687C218.255 120.587 218.262 120.502 218.262 120.421C218.262 120.094 218.15 119.739 217.98 119.385C217.894 119.207 217.794 119.038 217.656 118.891C217.52 118.744 217.328 118.597 217.06 118.597ZM217.052 119.42C217.059 119.426 217.059 119.425 217.07 119.436C217.123 119.493 217.196 119.604 217.259 119.733C217.323 119.869 217.329 119.963 217.365 120.097C217.256 120.064 217.21 120.021 217.06 120.021C216.907 120.021 216.858 120.064 216.747 120.099C216.78 119.963 216.786 119.863 216.849 119.728C216.908 119.601 216.977 119.493 217.029 119.44C217.041 119.426 217.044 119.426 217.052 119.42ZM220.264 119.95V121.56C220.259 121.845 219.867 122.614 219.369 123.21C219.117 123.509 218.848 123.78 218.623 123.963C218.398 124.146 218.166 124.204 218.262 124.204H215.859C215.96 124.204 215.726 124.146 215.5 123.958C215.275 123.77 215.005 123.497 214.753 123.193C214.502 122.89 214.268 122.556 214.103 122.256C213.989 122.046 213.917 121.852 213.881 121.71C213.872 121.657 213.856 121.601 213.856 121.555V119.958C213.985 120.022 214.119 120.075 214.257 120.118V121.4C214.257 121.486 214.268 121.571 214.285 121.652C214.286 121.66 214.29 121.665 214.291 121.671C214.308 121.745 214.33 121.815 214.362 121.882C214.362 121.885 214.363 121.888 214.363 121.89C214.365 121.89 214.365 121.89 214.365 121.89C214.556 122.308 214.973 122.602 215.458 122.602H215.859V123.403H216.66V122.602H217.461V123.403H218.262V122.602H218.662C219.321 122.602 219.863 122.059 219.863 121.4V120.082C219.998 120.041 220.14 120.011 220.264 119.95ZM213.055 121.144V121.555C213.055 121.685 213.079 121.813 213.112 121.94C212.351 122.356 211.605 122.668 210.84 122.874C211.514 122.388 212.258 121.802 213.055 121.144ZM222.291 122.128C222.631 122.392 222.962 122.646 223.275 122.871C222.891 122.768 222.509 122.635 222.127 122.478C222.177 122.367 222.233 122.247 222.291 122.128Z" fill="#D00725"/>
</g>
<rect x="6.8396" y="88.7565" width="27.7211" height="5.64124" fill="#D00725"/>
<rect x="34.5605" y="88.7565" width="27.7211" height="5.64124" fill="#333333"/>
<rect x="62.2817" y="88.7565" width="27.7211" height="5.64124" fill="#4F4F4F"/>
<rect x="90.0029" y="88.7565" width="27.7211" height="5.64124" fill="#828282"/>
<rect x="117.724" y="88.7565" width="27.7211" height="5.64124" fill="#E0E0E0"/>
<rect x="117.618" y="104.326" width="53.9297" height="27.7957" fill="#D00725"/>
<path d="M1.646 54.0059H234.068" stroke="black" stroke-width="0.715604"/>
<path d="M1.646 78.6021H234.068" stroke="black" stroke-width="0.715604"/>
<path d="M1.646 104.326H234.068" stroke="black" stroke-width="0.715604"/>
<defs>
<clipPath id="clip0_61:121">
<rect width="20.0239" height="20.0239" fill="white" transform="translate(207.048 106.983)"/>
</clipPath>
</defs>
</svg>
