<svg width="331" height="106" viewBox="0 0 331 106" fill="none" xmlns="http://www.w3.org/2000/svg">
<rect x="0.685652" y="0.84178" width="329.632" height="103.787" fill="white" stroke="black" stroke-width="1.12594"/>
<path d="M32.7828 15.0405C32.7828 13.4901 32.3572 12.1828 29.9252 12.1828H15.5762V32.46H17.7042V23.7046H22.5379L30.8068 32.46H33.6037L25.3043 23.7046H29.6212C31.8404 23.7046 32.7828 23.0966 32.7828 20.7862V15.0405ZM30.6548 20.3606C30.6548 21.4246 30.5636 21.759 29.378 21.759H17.7042V14.1285H29.4084C30.6548 14.1285 30.6548 14.7061 30.6548 15.8309V20.3606ZM57.2298 32.46L47.6537 12.1828H45.3432L35.4327 32.46H37.7735L40.5096 26.9271H52.0921L54.7674 32.46H57.2298ZM51.4233 25.103H41.2392L46.3768 14.1589L51.4233 25.103ZM77.7898 15.0405C77.7898 13.4901 77.3642 12.1828 74.9322 12.1828H60.5831V32.46H62.7112V23.7046H67.5448L75.8138 32.46H78.6106L70.3113 23.7046H74.6281C76.8474 23.7046 77.7898 23.0966 77.7898 20.7862V15.0405ZM75.6618 20.3606C75.6618 21.4246 75.5706 21.759 74.3849 21.759H62.7112V14.1285H74.4153C75.6618 14.1285 75.6618 14.7061 75.6618 15.8309V20.3606ZM85.3037 12.1828H83.1757V32.46H85.3037V12.1828ZM108.059 14.1285V12.1828H89.2415V14.1285H97.5712V32.46H99.6993V14.1285H108.059ZM129.704 12.1828H127.242L119.702 21.2118L112.467 12.1828H109.701L118.638 23.0054V32.46H120.766V23.0054L129.704 12.1828Z" fill="black"/>
<path d="M0.122681 41.2546L257.685 41.2546" stroke="black" stroke-width="1.12594"/>
<path d="M0.122681 68.3215L329.979 68.3215" stroke="black" stroke-width="1.12594"/>
<path d="M24.0117 50.8961C24.0117 50.0922 23.7911 49.4144 22.53 49.4144H14.1125V59.9285H22.3724C23.5231 59.9285 24.0117 59.6132 24.0117 58.4152V50.8961ZM22.9083 58.1945C22.9083 58.7462 22.861 58.9196 22.2463 58.9196H15.2159V50.4233H22.262C22.8453 50.4233 22.9083 50.6439 22.9083 51.2587V58.1945ZM35.8677 49.4144H34.5908L30.6816 54.0961L26.9299 49.4144H25.4955L30.1298 55.0261V59.9285H31.2333V55.0261L35.8677 49.4144ZM46.4682 55.1522C46.4682 54.2537 46.0741 54.0646 45.3963 54.0646H38.6181C38.5077 54.0646 38.4447 54.0173 38.4447 53.9069V50.5809C38.4447 50.4705 38.492 50.4233 38.5866 50.4233H45.1913V52.0942L46.2948 51.8104V50.6755C46.2948 49.7927 46.1529 49.4144 45.1283 49.4144H38.4447C37.6881 49.4144 37.3413 49.6666 37.3413 50.4233V53.9227C37.3413 54.8842 37.6881 55.0734 38.5077 55.0734H45.2071C45.3174 55.0734 45.3647 55.1207 45.3647 55.231V58.762C45.3647 58.8723 45.3174 58.9196 45.2071 58.9196H38.3028V57.2802L37.1994 57.564V58.8723C37.1994 59.629 37.4989 59.9285 38.2398 59.9285H45.3174C46.279 59.9285 46.4682 59.5659 46.4682 58.762V55.1522ZM57.5102 50.4233V49.4144H47.7527V50.4233H52.0719V59.9285H53.1753V50.4233H57.5102ZM68.3507 58.762C68.3507 58.8723 68.3034 58.9196 68.1931 58.9196H60.8159C60.7055 58.9196 60.6583 58.8723 60.6583 58.762V50.5809C60.6583 50.4705 60.7055 50.4233 60.8159 50.4233H68.1931C68.3034 50.4233 68.3507 50.4705 68.3507 50.5809V58.762ZM69.4541 50.4863C69.4541 49.7454 69.2177 49.4144 68.3507 49.4144H60.6583C59.7755 49.4144 59.5548 49.7454 59.5548 50.5178V58.8093C59.5548 59.6132 59.7755 59.9285 60.6583 59.9285H68.3507C69.2334 59.9285 69.4541 59.6132 69.4541 58.8093V50.4863ZM81.3731 50.8961C81.3731 50.0922 81.1524 49.4144 79.8913 49.4144H72.6087V59.9285H73.7122V55.5463H79.7337C80.8844 55.5463 81.3731 55.231 81.3731 54.033V50.8961ZM80.2697 53.8123C80.2697 54.3641 80.2224 54.5374 79.6076 54.5374H73.7122V50.4233H79.6234C80.2697 50.4233 80.2697 50.7228 80.2697 51.306V53.8123ZM84.6879 49.4144H83.5845V59.9285H84.6879V49.4144ZM97.7167 59.9285L92.7513 49.4144H91.5533L86.4145 59.9285H87.6282L89.0469 57.0596H95.0527L96.4399 59.9285H97.7167ZM94.7059 56.1138H89.4252L92.0892 50.439L94.7059 56.1138ZM109.213 59.9285V49.4144H108.109V58.3049L100.59 49.4144H99.4554V59.9285H100.559V51.038L108.078 59.9285H109.213Z" fill="black"/>
<path d="M14.4279 81.0848V80.6524H10.8811V85.1584H11.354V83.0237H13.3875V82.5913H11.354V81.0848H14.4279ZM18.5937 85.1584L16.4657 80.6524H15.9523L13.7499 85.1584H14.2701L14.8781 83.9289H17.452L18.0465 85.1584H18.5937ZM17.3034 83.5236H15.0402L16.182 81.0915L17.3034 83.5236ZM23.9936 85.1584V80.6524H23.5139L21.6831 83.6857L19.8321 80.6524H19.3389V85.1584H19.8118V81.5374L21.6696 84.4896L23.5207 81.5374V85.1584H23.9936ZM25.8154 80.6524H25.3425V85.1584H25.8154V80.6524ZM30.5749 85.1584V84.7261H27.6362V80.6524H27.1633V85.1584H30.5749ZM34.3297 80.6524H33.7825L32.107 82.6589L30.4992 80.6524H29.8844L31.8706 83.0574V85.1584H32.3435V83.0574L34.3297 80.6524Z" fill="black"/>
<path d="M15.6596 94.4795L15.1079 94.3376V95.5277H11.6164C11.5691 95.5277 11.5454 95.5041 11.5454 95.4568V91.3662C11.5454 91.3111 11.5691 91.2874 11.6243 91.2874H15.1079V92.4697L15.6596 92.3199V91.3741C15.6596 90.9091 15.5256 90.783 15.0764 90.783H11.577C11.1356 90.783 10.9937 90.9091 10.9937 91.3741V95.4568C10.9937 95.9061 11.1356 96.04 11.577 96.04H15.0764C15.5178 96.04 15.6596 95.9061 15.6596 95.4568V94.4795ZM21.4711 90.783H20.8327L18.878 93.1238L17.0022 90.783H16.285L18.6022 93.5889V96.04H19.1539V93.5889L21.4711 90.783ZM22.2158 96.04H25.9201C26.5901 96.04 26.6768 95.709 26.6768 95.2676V93.8411C26.6768 93.5652 26.5428 93.4312 26.4088 93.3682C26.33 93.3288 26.2433 93.313 26.1566 93.313C26.2354 93.3051 26.3063 93.2736 26.3694 93.2184C26.4876 93.1317 26.5979 92.982 26.5979 92.7061V91.6106C26.5979 90.9722 26.4088 90.783 25.7783 90.783H22.2158V96.04ZM26.1251 95.1809C26.1251 95.4647 26.0935 95.5356 25.7467 95.5356H22.7675V93.5967H25.7389C26.0541 93.5967 26.1251 93.6283 26.1251 93.9199V95.1809ZM26.0462 92.7692C26.0462 93.045 25.9359 93.0923 25.66 93.0923H22.7675V91.2874H25.6837C26.0068 91.2874 26.0462 91.3505 26.0462 91.6579V92.7692ZM32.3268 96.04V95.5356H28.7249V93.5495H31.0578V93.045H28.7249V91.2874H32.2795V90.783H28.1732V96.04H32.3268ZM37.9758 91.5239C37.9758 91.1219 37.8654 90.783 37.2349 90.783H33.5148V96.04H34.0665V93.7701H35.3197L37.4635 96.04H38.1886L36.0369 93.7701H37.1561C37.7315 93.7701 37.9758 93.6125 37.9758 93.0135V91.5239ZM37.4241 92.9032C37.4241 93.179 37.4004 93.2657 37.093 93.2657H34.0665V91.2874H37.1009C37.4241 91.2874 37.4241 91.4372 37.4241 91.7288V92.9032ZM44.109 90.783H43.5573V95.4568C43.5573 95.512 43.5336 95.5356 43.4863 95.5356H40.0026C39.9475 95.5356 39.9238 95.512 39.9238 95.4568V90.783H39.3721V95.4883C39.3721 95.9612 39.5849 96.04 39.9554 96.04H43.5415C44.0223 96.04 44.109 95.8588 44.109 95.4568V90.783ZM50.5623 96.04V90.783H50.0106V95.2282L46.251 90.783H45.6836V96.04H46.2353V91.5948L49.9948 96.04H50.5623ZM57.02 96.04V90.783H56.4682V95.2282L52.7087 90.783H52.1412V96.04H52.693V91.5948L56.4525 96.04H57.02ZM62.7525 96.04V95.5356H59.1506V93.5495H61.4836V93.045H59.1506V91.2874H62.7052V90.783H58.5989V96.04H62.7525ZM68.4015 91.5239C68.4015 91.1219 68.2912 90.783 67.6607 90.783H63.9406V96.04H64.4923V93.7701H65.7454L67.8892 96.04H68.6143L66.4627 93.7701H67.5819C68.1572 93.7701 68.4015 93.6125 68.4015 93.0135V91.5239ZM67.8498 92.9032C67.8498 93.179 67.8262 93.2657 67.5188 93.2657H64.4923V91.2874H67.5267C67.8498 91.2874 67.8498 91.4372 67.8498 91.7288V92.9032ZM74.3535 93.6519C74.3535 93.2027 74.1564 93.1081 73.8175 93.1081H70.4284C70.3732 93.1081 70.3417 93.0844 70.3417 93.0293V91.3662C70.3417 91.3111 70.3654 91.2874 70.4126 91.2874H73.715V92.1229L74.2668 91.981V91.4135C74.2668 90.9722 74.1958 90.783 73.6835 90.783H70.3417C69.9634 90.783 69.79 90.9091 69.79 91.2874V93.0371C69.79 93.5179 69.9634 93.6125 70.3732 93.6125H73.7229C73.7781 93.6125 73.8017 93.6361 73.8017 93.6913V95.4568C73.8017 95.512 73.7781 95.5356 73.7229 95.5356H70.2708V94.7159L69.7191 94.8578V95.512C69.7191 95.8903 69.8688 96.04 70.2393 96.04H73.7781C74.2589 96.04 74.3535 95.8588 74.3535 95.4568V93.6519Z" fill="black"/>
<path d="M101.657 83.8208L101.184 83.6992V84.7193H98.1911C98.1505 84.7193 98.1303 84.6991 98.1303 84.6585V81.1523C98.1303 81.1051 98.1505 81.0848 98.1978 81.0848H101.184V82.0981L101.657 81.9698V81.1591C101.657 80.7605 101.542 80.6524 101.157 80.6524H98.1573C97.779 80.6524 97.6574 80.7605 97.6574 81.1591V84.6585C97.6574 85.0436 97.779 85.1584 98.1573 85.1584H101.157C101.535 85.1584 101.657 85.0436 101.657 84.6585V83.8208ZM106.733 81.2875C106.733 80.9429 106.638 80.6524 106.098 80.6524H102.909V85.1584H103.382V83.2128H104.456L106.293 85.1584H106.915L105.071 83.2128H106.03C106.523 83.2128 106.733 83.0777 106.733 82.5643V81.2875ZM106.26 82.4697C106.26 82.7061 106.239 82.7805 105.976 82.7805H103.382V81.0848H105.983C106.26 81.0848 106.26 81.2131 106.26 81.4631V82.4697ZM111.49 85.1584V84.7261H108.402V83.0237H110.402V82.5913H108.402V81.0848H111.449V80.6524H107.929V85.1584H111.49ZM116.876 85.1584L114.748 80.6524H114.234L112.032 85.1584H112.552L113.16 83.9289H115.734L116.328 85.1584H116.876ZM115.585 83.5236H113.322L114.464 81.0915L115.585 83.5236ZM120.518 81.0848V80.6524H116.337V81.0848H118.188V85.1584H118.66V81.0848H120.518ZM125.164 84.6585C125.164 84.7058 125.144 84.7261 125.097 84.7261H121.935C121.888 84.7261 121.867 84.7058 121.867 84.6585V81.1523C121.867 81.1051 121.888 81.0848 121.935 81.0848H125.097C125.144 81.0848 125.164 81.1051 125.164 81.1523V84.6585ZM125.637 81.1118C125.637 80.7943 125.536 80.6524 125.164 80.6524H121.867C121.489 80.6524 121.395 80.7943 121.395 81.1253V84.6788C121.395 85.0233 121.489 85.1584 121.867 85.1584H125.164C125.543 85.1584 125.637 85.0233 125.637 84.6788V81.1118ZM130.813 81.2875C130.813 80.9429 130.718 80.6524 130.178 80.6524H126.989V85.1584H127.462V83.2128H128.536L130.374 85.1584H130.995L129.151 83.2128H130.11C130.603 83.2128 130.813 83.0777 130.813 82.5643V81.2875ZM130.34 82.4697C130.34 82.7061 130.32 82.7805 130.056 82.7805H127.462V81.0848H130.063C130.34 81.0848 130.34 81.2131 130.34 81.4631V82.4697ZM135.914 83.1115C135.914 82.7264 135.746 82.6453 135.455 82.6453H132.55C132.503 82.6453 132.476 82.6251 132.476 82.5778V81.1523C132.476 81.1051 132.496 81.0848 132.537 81.0848H135.367V81.8009L135.84 81.6793V81.1929C135.84 80.8146 135.779 80.6524 135.34 80.6524H132.476C132.152 80.6524 132.003 80.7605 132.003 81.0848V82.5845C132.003 82.9966 132.152 83.0777 132.503 83.0777H135.374C135.421 83.0777 135.442 83.098 135.442 83.1453V84.6585C135.442 84.7058 135.421 84.7261 135.374 84.7261H132.415V84.0235L131.942 84.1451V84.7058C131.942 85.0301 132.07 85.1584 132.388 85.1584H135.421C135.833 85.1584 135.914 85.0031 135.914 84.6585V83.1115Z" fill="black"/>
<path d="M102.649 96.1584V90.9014H102.097V95.3466L98.3374 90.9014H97.77V96.1584H98.3217V91.7132L102.081 96.1584H102.649ZM108.381 96.1584V95.654H104.779V93.6679H107.112V93.1634H104.779V91.4058H108.334V90.9014H104.228V96.1584H108.381ZM114.306 90.9014H113.754V95.5752C113.754 95.6304 113.731 95.654 113.683 95.654H110.2C110.145 95.654 110.121 95.6304 110.121 95.5752V90.9014H109.569V95.6067C109.569 96.0796 109.782 96.1584 110.153 96.1584H113.739C114.219 96.1584 114.306 95.9772 114.306 95.5752V90.9014ZM120.342 91.6423C120.342 91.2403 120.231 90.9014 119.601 90.9014H115.881V96.1584H116.432V93.8885H117.686L119.829 96.1584H120.555L118.403 93.8885H119.522C120.097 93.8885 120.342 93.7309 120.342 93.1319V91.6423ZM119.79 93.0216C119.79 93.2974 119.766 93.3841 119.459 93.3841H116.432V91.4058H119.467C119.79 91.4058 119.79 91.5556 119.79 91.8472V93.0216ZM126.136 95.5752C126.136 95.6304 126.112 95.654 126.057 95.654H122.369C122.313 95.654 122.29 95.6304 122.29 95.5752V91.4847C122.29 91.4295 122.313 91.4058 122.369 91.4058H126.057C126.112 91.4058 126.136 91.4295 126.136 91.4847V95.5752ZM126.688 91.4374C126.688 91.0669 126.569 90.9014 126.136 90.9014H122.29C121.848 90.9014 121.738 91.0669 121.738 91.4531V95.5989C121.738 96.0008 121.848 96.1584 122.29 96.1584H126.136C126.577 96.1584 126.688 96.0008 126.688 95.5989V91.4374ZM133.695 96.1584V90.9014H133.136L131 94.4403L128.84 90.9014H128.265V96.1584H128.817V91.9339L130.984 95.3782L133.144 91.9339V96.1584H133.695ZM140.211 96.1584L137.728 90.9014H137.129L134.56 96.1584H135.167L135.876 94.724H138.879L139.573 96.1584H140.211ZM138.706 94.2511H136.065L137.397 91.4137L138.706 94.2511ZM145.959 96.1584V90.9014H145.407V95.3466L141.648 90.9014H141.08V96.1584H141.632V91.7132L145.392 96.1584H145.959ZM152.204 94.5979L151.652 94.456V95.6461H148.161C148.113 95.6461 148.09 95.6225 148.09 95.5752V91.4847C148.09 91.4295 148.113 91.4058 148.169 91.4058H151.652V92.5881L152.204 92.4383V91.4925C152.204 91.0275 152.07 90.9014 151.621 90.9014H148.121C147.68 90.9014 147.538 91.0275 147.538 91.4925V95.5752C147.538 96.0245 147.68 96.1584 148.121 96.1584H151.621C152.062 96.1584 152.204 96.0245 152.204 95.5752V94.5979ZM157.818 96.1584V95.654H154.216V93.6679H156.549V93.1634H154.216V91.4058H157.771V90.9014H153.665V96.1584H157.818ZM163.467 91.6423C163.467 91.2403 163.357 90.9014 162.726 90.9014H159.006V96.1584H159.558V93.8885H160.811L162.955 96.1584H163.68L161.528 93.8885H162.648C163.223 93.8885 163.467 93.7309 163.467 93.1319V91.6423ZM162.916 93.0216C162.916 93.2974 162.892 93.3841 162.585 93.3841H159.558V91.4058H162.592C162.916 91.4058 162.916 91.5556 162.916 91.8472V93.0216ZM169.419 93.7703C169.419 93.3211 169.222 93.2265 168.883 93.2265H165.494C165.439 93.2265 165.407 93.2028 165.407 93.1477V91.4847C165.407 91.4295 165.431 91.4058 165.478 91.4058H168.781V92.2413L169.333 92.0994V91.5319C169.333 91.0906 169.262 90.9014 168.749 90.9014H165.407C165.029 90.9014 164.856 91.0275 164.856 91.4058V93.1556C164.856 93.6363 165.029 93.7309 165.439 93.7309H168.789C168.844 93.7309 168.868 93.7546 168.868 93.8097V95.5752C168.868 95.6304 168.844 95.654 168.789 95.654H165.337V94.8343L164.785 94.9762V95.6304C164.785 96.0087 164.935 96.1584 165.305 96.1584H168.844C169.325 96.1584 169.419 95.9772 169.419 95.5752V93.7703Z" fill="black"/>
<path d="M222.158 95.2917V94.7794H221.023V89.9874L219.344 90.35V90.7362L220.471 90.6652V94.7794H219.344V95.2917H222.158ZM225.422 94.7873L228.48 92.3283C228.725 92.1312 228.835 92.0288 228.835 91.7529V90.5628C228.835 90.2239 228.732 90.0347 228.283 90.0347H225.383C225.044 90.0347 224.784 90.0584 224.784 90.6022V91.6032L225.336 91.745V90.5391H228.283V91.816L224.8 94.606C224.673 94.7085 224.61 94.874 224.61 95.0317V95.2917H228.551C229.048 95.2917 229.087 95.0238 229.087 94.7085V94.0149L228.535 93.8731V94.7873H225.422ZM235.433 93.9676V93.4553H234.306V90.0347H233.802L230.373 93.542V93.9676H233.754V95.2917H234.306V93.9676H235.433ZM233.754 93.4553H231.122L233.754 90.7441V93.4553ZM241.59 90.4761V90.0347H236.94V91.6032L237.491 91.745V90.5391H240.991L238.524 95.2917H239.131L241.59 90.4761ZM243.01 94.409C243.01 94.9134 243.049 95.2917 243.774 95.2917H246.982C247.707 95.2917 247.747 94.9134 247.747 94.409V93.0849C247.747 92.5726 247.297 92.5647 247.226 92.5647C247.329 92.5411 247.668 92.4623 247.668 91.9263V90.7835C247.668 90.279 247.487 90.0347 246.919 90.0347H243.837C243.27 90.0347 243.089 90.279 243.089 90.7835V91.9263C243.089 92.3283 243.286 92.4859 243.42 92.5332L243.514 92.5647C243.498 92.5647 243.467 92.5647 243.412 92.5726C243.254 92.5884 243.01 92.7145 243.01 93.0849V94.409ZM246.84 92.8485C247.179 92.8485 247.195 92.9115 247.195 93.2268V94.3617C247.195 94.6612 247.187 94.7873 246.856 94.7873H243.9C243.554 94.7873 243.561 94.6376 243.561 94.346V93.2268C243.561 92.9115 243.577 92.8485 243.916 92.8485H246.84ZM246.738 90.5391C247.061 90.5391 247.116 90.5943 247.116 90.9332V91.9657C247.116 92.281 247.045 92.344 246.738 92.344H244.019C243.711 92.344 243.64 92.281 243.64 91.9657V90.9332C243.64 90.5943 243.68 90.5391 244.019 90.5391H246.738Z" fill="black"/>
<path d="M273.018 81.4657V82.0929L273.444 82.5351H274.071L274.513 82.0929V81.4657L274.071 81.0235H273.444L273.259 80.8466V80.2194L272.817 79.7691H269.689L269.247 80.2194V80.8466L269.062 81.0235H268.435L267.992 81.4657V89.6188L268.435 90.045H269.062L269.247 90.246V90.8732L269.689 91.2993H272.817L273.259 90.8732V90.246L273.444 90.045H274.071L274.513 89.6188V88.9917L274.071 88.5494H273.444L273.018 88.9917V89.6188L272.817 89.8038H269.689L269.504 89.6188V81.4657L269.689 81.2888H272.817L273.018 81.4657ZM282.868 90.8732L283.318 91.2993H283.929L284.371 90.8732V86.4911L283.929 86.0488H283.318L283.117 85.8478V85.2206L283.318 85.0438H283.929L284.371 84.5935V81.4657L283.929 81.0235H283.318L283.117 80.8466V80.2194L282.675 79.7691H278.292L277.866 80.2194V90.8732L278.292 91.2993H278.92L279.362 90.8732V86.4911L279.048 86.1614L279.233 85.9765L279.547 86.29H282.675L282.868 86.4911V90.8732ZM282.868 81.4657V84.5935L282.675 84.7945H279.547L279.233 85.1081L279.048 84.9071L279.362 84.5935V81.4657L279.048 81.1521L279.233 80.9752L279.547 81.2888H282.675L282.868 81.4657ZM290.361 82.2135L290.554 82.4065L290.241 82.72V89.6028L290.554 89.9163L290.361 90.0932L290.048 89.7877H289.421L288.994 90.2299V90.8571L289.421 91.2993H292.564L292.991 90.8571V90.2299L292.564 89.7877H291.937L291.608 90.0932L291.431 89.9163L291.744 89.6028V80.2194L291.294 79.7691H290.683L290.241 80.2194V80.8225L290.554 81.1521L290.361 81.3371L290.048 81.0235H289.421L288.994 81.4657V82.0929L289.421 82.519H290.048L290.361 82.2135ZM299.31 79.7691L298.868 80.2194V80.8466L298.683 81.0235H298.056L297.614 81.4657V89.6028L298.056 90.045H298.683L298.868 90.2299V90.8571L299.31 91.2993H302.438L302.88 90.8571V90.2299L303.065 90.045H303.693L304.135 89.6028V81.4657L303.693 81.0235H303.065L302.88 80.8466V80.2194L302.438 79.7691H299.31ZM298.997 87.2308L299.31 87.5444H299.938L302.752 84.7302L302.929 84.9071L302.615 85.2206V89.6028L302.438 89.7877H299.31L299.126 89.6028V87.7293L298.812 87.4157L298.997 87.2308ZM302.438 81.2888L302.615 81.4657V83.3472L302.929 83.6608L302.752 83.8377L302.438 83.5241H301.811L298.997 86.3463L298.812 86.1614L299.126 85.8478V81.4657L299.31 81.2888H302.438ZM311.243 82.72V83.3472L311.058 83.5241H310.431L309.988 83.9744V90.8571L310.431 91.2993H311.058L311.508 90.8571V83.9744L311.685 83.7894H312.312L312.754 83.3472V82.72L312.939 82.5351H313.566L314.009 82.0929V80.2194L313.566 79.7691H307.93L307.488 80.2194V80.8466L307.93 81.2888H312.312L312.626 80.9752L312.803 81.1521L312.489 81.4657V82.0929L312.312 82.2778H311.685L311.243 82.72ZM322.628 90.8571V90.2299L322.813 90.045H323.44L323.882 89.6028V86.475L323.44 86.0327H322.813L322.628 85.8478V85.2206L322.813 85.0438H323.44L323.882 84.5935V81.4657L323.44 81.0235H322.813L322.628 80.8466V80.2194L322.186 79.7691H319.058L318.616 80.2194V80.8466L318.431 81.0235H317.804L317.362 81.4657V84.5935L317.804 85.0438H318.431L318.616 85.2206V85.8478L318.431 86.0327H317.804L317.362 86.475V89.6028L317.804 90.045H318.431L318.616 90.2299V90.8571L319.058 91.2993H322.186L322.628 90.8571ZM322.186 81.2888L322.363 81.4657V84.5935L322.186 84.7784H319.058L318.873 84.5935V81.4657L319.058 81.2888H322.186ZM322.363 86.475V89.6028L322.186 89.7877H319.058L318.873 89.6028V86.475L319.058 86.29H322.186L322.363 86.475Z" fill="black"/>
<path d="M257.685 1.01489V104.353" stroke="black" stroke-width="1.12594"/>
<path fill-rule="evenodd" clip-rule="evenodd" d="M282.066 24.6323H289.726C291.536 24.6323 293.009 26.1053 293.009 27.915V32.5163C293.009 33.4422 292.251 34.1998 291.325 34.1998H283.666C281.856 34.1998 280.383 32.7268 280.383 30.9171V26.3157C280.383 25.3899 281.141 24.6323 282.066 24.6323Z" fill="#D00725"/>
<path fill-rule="evenodd" clip-rule="evenodd" d="M284.156 49.2941L284.17 39.6706V38.913L286.316 39.867L286.695 56.3084L289.36 57.1781L288.996 43.5284L290.511 43.0514L291.198 54.8073C290.904 54.7793 290.623 54.7652 290.371 54.7372C290.665 55.4105 290.974 56.0839 291.268 56.7573C291.801 56.7713 292.278 56.8555 292.755 56.9396C292.769 56.9116 292.811 56.7713 292.826 56.7433C293.625 56.7152 294.298 56.5188 294.579 56.3645L295.084 56.5328C295.477 56.0699 295.701 52.4365 295.814 50.3042L293.962 51.4826C293.948 52.3243 294.172 53.9796 294.242 55.13C294.032 55.0879 293.387 55.0318 293.12 55.0037L293.134 42.6025L294.214 42.9112C294.228 42.9392 293.92 45.7309 293.92 46.2359L295.954 47.3582C295.954 46.9514 295.954 46.6006 295.954 46.3622L295.94 42.5745L297.764 42.1676L298.381 42.7148L298.479 42.813L298.269 42.9673L297.441 43.5565C297.062 48.1157 297.75 51.6228 296.613 56.5188C297.399 56.4066 298.872 56.2242 299.657 56.126C300.092 55.7753 299.84 49.8553 299.924 46.769C300.373 46.755 302 44.3 302.295 42.7568L301.215 42.9673C301.565 40.7928 301.762 38.422 301.79 38.0713C302.239 39.2076 302.533 40.372 302.561 41.4522L303.627 40.5684C303.333 42.6306 303.333 43.9212 301.439 47.1618C305.157 46.2499 308.594 40.4141 309.828 36.8929L308.594 37.0332L309.968 31.2956C311.119 26.4698 310.445 24.9547 308.201 20.4094C306.139 16.243 304.876 13.0585 300.036 12.0485C295.505 11.1085 291.198 10.1686 287.228 12.3571L283.707 14.293L283.679 15.8642L283.609 17.0426C283.665 17.3653 284.338 16.4253 284.408 16.762C284.843 18.9224 285.489 21.2231 285.587 21.5738C284.773 20.662 284.072 19.6659 283.665 18.6699C283.342 18.8944 283.202 19.4836 282.977 19.8764L281.294 16.257C278.446 17.9685 277.071 20.2411 276.552 22.8083C275.711 26.9327 277.071 31.7725 277.969 36.1494L279.428 36.7947V37.4541V38.2397L280.158 38.5483L281.35 39.0533V38.5483L281.336 46.9373C280.144 47.4143 280.494 49.1819 281.757 49.1959C282.795 49.1959 283.328 47.9474 282.585 47.2039C282.444 47.0636 282.262 46.9514 282.066 46.8952L282.08 38.0152V38.5763L281.35 38.2677L280.158 37.7627V37.1034L283.426 38.5483L283.384 49.3081C283.23 49.3643 283.104 49.4484 282.992 49.5607C282.781 49.7711 282.655 50.0657 282.641 50.3883C282.641 50.711 282.767 51.0056 282.977 51.216C283.188 51.4264 283.483 51.5527 283.805 51.5667C284.128 51.5667 284.422 51.4405 284.633 51.23C284.843 51.0196 284.97 50.725 284.984 50.4024C284.984 50.0797 284.857 49.7851 284.647 49.5747C284.507 49.4344 284.324 49.3222 284.128 49.2661L284.156 49.2941ZM294.411 33.9189L297.034 35.2235L299.503 31.9268L302.617 35.0412L304.469 32.4739L301.186 30.0891L304.637 26.6662L301.804 25.4176L299.643 28.4899L295.715 25.7964L295.196 27.6341L298.114 30.3276L294.425 33.9329L294.411 33.9189ZM281.448 48.3823C281.897 48.8312 282.571 48.1578 282.136 47.7089C281.687 47.26 281.014 47.9334 281.448 48.3823ZM294.2 35.2376C294.775 35.8268 294.733 36.3879 295.168 37.1174C295.659 37.9451 295.912 37.6645 295.224 39.1094C295.084 39.4181 295.042 39.5583 294.733 39.6565C294.411 39.8529 293.611 39.3058 293.443 39.3619C293.274 39.4181 292.349 39.9371 292.349 39.9371C292.026 39.9371 291.675 39.0954 291.563 38.8289C291.479 38.6465 291.324 38.3098 291.282 38.0994C291.212 37.7487 291.367 37.6505 291.535 37.412C292.363 36.3318 292.208 35.434 293.176 34.9991C293.569 34.3117 293.878 34.9289 294.2 35.2516V35.2376ZM288.869 32.6984C289.332 32.2214 289.627 31.6743 289.809 31.0851C289.865 30.8607 289.922 30.6502 289.936 30.4258L292.657 31.9409C293.204 32.2495 291.254 32.6142 288.869 32.6984ZM286.148 28.3636C285.952 28.3917 285.797 28.4899 285.657 28.6301C285.194 29.0931 285.012 29.6963 284.97 30.2154C284.956 30.7344 285.11 31.1412 285.362 31.4639C285.811 31.997 286.751 32.2495 287.382 31.534C287.607 31.2675 287.747 30.9589 287.831 30.6222C287.93 30.2013 287.916 29.7805 287.775 29.3736C287.747 29.3035 287.719 29.2334 287.691 29.1632L286.232 28.3496C286.204 28.3496 286.176 28.3496 286.148 28.3636ZM284.38 27.3255C283.497 28.1111 283.006 29.4298 282.921 30.2715C282.907 31.029 283.104 31.6743 283.468 32.2074C283.006 32.0671 282.613 31.8848 282.318 31.6603L281.196 25.5439L284.38 27.3255ZM284.184 50.0657H284.17L284.156 50.0517L284.142 50.0376C284.128 50.0236 284.1 50.0096 284.086 50.0096L284.058 49.9955H284.03H284.002H283.974H283.959H283.945H283.931H283.917H283.903H283.889H283.875H283.861H283.847H283.833H283.819H283.805H283.791H283.777H283.763H283.749H283.735C283.665 50.0236 283.595 50.0657 283.539 50.1078C283.483 50.1639 283.44 50.22 283.426 50.3042V50.3182V50.3322V50.3463V50.3603V50.3743V50.3883V50.4024V50.4164V50.4304V50.4445V50.4585V50.4725V50.4865V50.5006V50.5146V50.5286V50.5427V50.5567V50.5707V50.5847V50.5988V50.6128V50.6268V50.6409V50.6549V50.6689V50.6829V50.697L283.44 50.725V50.7391L283.454 50.7671V50.7811V50.7952V50.8092V50.8232V50.8373L283.483 50.8653H283.497L283.511 50.8793L283.525 50.8934L283.539 50.9074L283.553 50.9214L283.567 50.9355H283.581H283.595H283.609H283.623H283.637H283.651H283.665H283.679H283.693H283.707H283.721H283.735H283.749H283.763H283.777H283.791H283.805H283.819H283.833H283.847H283.861H283.875H283.889H283.903H283.917H283.931C284.002 50.9074 284.072 50.8653 284.128 50.8232C284.184 50.7671 284.226 50.711 284.24 50.6268V50.6128V50.5847V50.5707V50.5286V50.5146V50.5006V50.4865V50.4725V50.4585V50.4445V50.4304V50.4164V50.4024V50.3883V50.3743V50.3603V50.3463V50.3322V50.3182V50.3042V50.2901V50.2761V50.2621V50.2481V50.234V50.22V50.206V50.1919V50.1779V50.1639V50.1499V50.1358V50.1218V50.1078V50.0937V50.0797V50.0657V50.0517V50.0376V50.0236V50.0096V49.9955V49.9815L284.184 50.0657Z" fill="black"/>
</svg>
