<svg width="187" height="187" viewBox="0 0 187 187" fill="none" xmlns="http://www.w3.org/2000/svg">
<path d="M150.601 60.6858C168.85 92.2933 158.02 132.71 126.413 150.958C94.8052 169.207 54.3888 158.377 36.1402 126.77C17.8915 95.1623 28.7211 54.7459 60.3286 36.4973C91.9362 18.2487 132.353 29.0782 150.601 60.6858Z" fill="white" stroke="#2B2656" stroke-width="3.64749"/>
<path d="M137.401 68.7269C146.835 85.5395 144.422 107.753 130.789 123.507C116.915 139.537 94.6273 146.07 75.4177 139.84C64.8918 136.438 56.229 129.186 50.8475 119.862C48.9073 116.501 43.3119 119.8 45.2583 123.164C50.6766 132.501 58.9939 139.799 69.1094 144.094C79.225 148.389 90.662 149.478 101.907 147.216C124.68 142.569 143.764 123.749 148.333 101.48C150.923 88.9123 149.035 76.1684 142.989 65.4148C141.091 62.0398 135.499 65.3364 137.401 68.7269Z" fill="#2B2656"/>
<path d="M89.6159 71.0901L89.2897 72.3074L86.8459 73.7184L86.0799 76.4759L87.5094 78.9518L87.1696 80.2198L79.2894 78.0812L76.7812 79.5292L75.5961 79.1845L68.3743 66.676L65.5661 65.8964L63.058 67.3444L62.3934 70.1291L69.6152 82.6376L72.3405 83.4222L74.8486 81.9741L76.0795 82.2496L77.509 84.7255L85.3893 86.8642L85.0817 88.1137L82.5735 89.5617L81.8904 92.3142L83.3013 94.7581L82.943 95.9939L80.4348 97.442L79.7702 100.227L86.992 112.735L89.6802 113.455L92.1883 112.007L92.9729 109.282L85.7512 96.7736L86.0266 95.5427L88.5347 94.0946L89.2822 91.305L87.8713 88.8612L88.1789 87.6117L96.0913 89.7318L98.5351 88.3209L99.771 88.6792L106.993 101.188L109.777 101.852L112.286 100.404L113.006 97.7161L105.784 85.2076L103.04 84.3908L100.532 85.8389L99.2826 85.5313L97.8717 83.0874L89.9543 80.8844L90.3176 79.7315L92.7614 78.3205L93.4903 75.4987L92.0608 73.0228L92.4377 71.8191L94.9458 70.371L95.629 67.6185L88.4072 55.11L85.6633 54.2932L83.1552 55.7413L82.3941 58.5816L89.6159 71.0901Z" fill="#2B2656"/>
</svg>
