<svg width="198" height="197" viewBox="0 0 198 197" fill="none" xmlns="http://www.w3.org/2000/svg">
<circle cx="99" cy="98.3752" r="98.3327" fill="white"/>
<g clip-path="url(#clip0_66:143)">
<path d="M45.999 33.6712L42.9543 36.281V36.6101L49.7021 44.6158H50.043L53.0878 41.9943V41.6416L52.5588 41.0303V40.2427L53.1701 39.7254L53.9694 39.7842L54.4985 40.3955L54.4162 41.1831L53.8049 41.7004V42.0531L54.3339 42.6644L54.4044 43.4403L51.3479 46.0618H50.5603L50.043 45.4505H49.6903L49.079 45.9795H48.2914L41.473 37.8798L41.5318 37.0804L42.1431 36.5513V36.2222L41.6141 35.6109L41.6729 34.7997L44.7176 32.1899L45.5288 32.2605L46.046 32.8718H46.3752L46.9865 32.3545L47.7859 32.4133L48.3149 33.0246V33.824L47.7036 34.353L46.916 34.2707L46.387 33.6594L45.999 33.6712Z" fill="#231F20"/>
<path d="M56.6379 24.6307L56.826 23.8313L57.5196 23.4551L58.2955 23.6549L60.3881 27.0876L60.2 27.8753L59.5181 28.2867L59.4241 28.6276L59.8355 29.3095L59.6709 30.0854L58.9774 30.5086L58.8833 30.826L62.6334 36.9978L62.4571 37.7854L61.7635 38.1969L60.9876 38.0088L57.214 31.8252L56.8966 31.7429L56.2147 32.1661L55.4271 31.9663L55.0039 31.2844L54.663 31.2257L53.9929 31.6254L53.2288 31.4373L51.1362 28.0046L51.3126 27.2169L51.9826 26.8055L52.7703 27.0053L54.8628 30.438L55.2037 30.4968L55.8973 30.0854L56.6615 30.2852L57.0729 30.967L57.4138 31.0376L58.1074 30.6261L58.178 30.297L57.7665 29.6151L57.9546 28.8275L58.6364 28.4043L58.7187 28.0986L56.6379 24.6307Z" fill="#231F20"/>
<path d="M74.5656 31.355L74.2482 32.0721L69.0286 34.1881L68.2998 33.8942L63.1625 21.198L63.4681 20.4456L68.6877 18.3413L69.4401 18.6587L69.734 19.4111L70.0396 19.5286L70.792 19.2347L71.5326 19.5404L73.0373 23.267L72.7317 24.0194L72.0381 24.325L71.9088 24.6189L72.2027 25.3713L72.5201 25.5241L73.2137 25.2185L73.9543 25.5359L75.459 29.2507L75.1416 29.9796L74.3893 30.2852L74.2717 30.6026L74.5656 31.355ZM69.4283 20.1517L65.7017 21.6564L65.1727 21.4331L65.0434 21.7387L65.5607 21.9621L67.0654 25.6887L66.842 26.2059L67.1594 26.3588L67.3358 25.8062L71.0624 24.3015L71.2034 23.9723L69.7457 20.2693L69.4283 20.1517ZM72.1674 26.253L71.8383 26.1119L68.1117 27.6166L67.5827 27.3933L67.4533 27.6989L67.9824 27.9458L69.4871 31.6842L69.2755 32.2014L69.5811 32.3425L69.8045 31.8135L73.5311 30.3087L73.6839 29.9913L72.1674 26.253Z" fill="#231F20"/>
<path d="M76.1056 16.4018L76.5406 15.7082L83.594 14.1094L84.2759 14.5561L84.4522 15.3437L84.0172 16.0138L78.539 17.2834L78.0571 16.9778L77.916 17.2599L78.398 17.5538L79.2797 21.4803L78.974 21.9623L79.2679 22.1621L79.5736 21.6801L83.4882 20.7984L84.1701 21.1981L84.3464 21.9858L83.9114 22.6676L79.9968 23.5493L79.5148 23.2554L79.3267 23.5375L79.8204 23.8549L80.7021 27.7814L80.3965 28.2634L80.6786 28.4397L80.9843 27.9577L86.486 26.7234L87.1561 27.1466L87.3441 27.9342L86.9092 28.5925L79.8557 30.1913L79.0916 29.7799L76.1056 16.4018Z" fill="#231F20"/>
<path d="M96.5254 21.4803L96.2668 21.2451L92.258 21.4803L91.8231 21.1041L91.5997 21.3627L92.0347 21.7624L92.3756 27.3817L91.8348 27.9577H91.0354L90.4594 27.4522L89.6718 13.8272L90.1773 13.2159L95.7613 12.875L96.3608 13.4158V14.2269L96.6312 14.4385H97.4188L98.0184 14.9675L98.2652 18.9763L97.7362 19.5876H96.9486L96.7252 19.8344V20.6338L96.9956 20.8807H97.7833L98.3828 21.4097L98.7943 26.982L98.2652 27.5698H97.4776L96.8663 27.0525L96.5254 21.4803ZM95.8788 14.8265L91.8583 15.0733L91.4351 14.6854L91.2118 14.9323L91.635 15.3085L91.8818 19.3172L91.5057 19.7521L91.7643 19.9873L92.1405 19.5641L96.1492 19.3172L96.3843 19.0468L96.1374 15.0381L95.8788 14.8265Z" fill="#231F20"/>
<path d="M109.833 14.0506L110.468 13.5333L111.279 13.6156L111.761 14.2504L110.585 26.2649L109.986 26.7469L109.186 26.6646L108.904 26.8997L108.822 27.6991L108.199 28.1928L104.202 27.7814L103.72 27.1818L103.802 26.3824L103.567 26.1003L102.768 26.018L102.274 25.4184L103.45 13.404L104.049 12.875L104.849 12.9573L105.354 13.5803L104.178 25.6065L104.39 25.8652L108.387 26.2649L108.657 26.0533L109.833 14.0506Z" fill="#231F20"/>
<path d="M117.886 18.3768L118.168 18.8706L115.44 28.9806L114.747 29.3568L113.971 29.1452L113.571 28.4751L117.133 15.2263L117.886 14.8501L118.662 15.0617L119.061 15.7671L118.85 16.5429L118.368 16.8133L118.52 17.1307L119.026 16.8251L119.802 17.0367L122.341 21.4921L122.588 21.3158L122.318 20.822L123.364 16.9426L124.057 16.5312L124.822 16.731L125.221 17.4364L121.695 30.6499L121.001 31.0378L120.237 30.8262L119.837 30.1562L121.73 23.1027L122.212 22.8088L122.035 22.5266L121.542 22.8088L120.754 22.5972L118.18 18.2123L117.886 18.3768Z" fill="#231F20"/>
<path d="M130.558 22.4441L130.758 22.9849L126.432 32.5306L125.692 32.7892L124.939 32.4601L124.669 31.6842L130.323 19.2465L131.076 18.9526L131.816 19.2936L132.087 20.0459L131.758 20.7865L131.229 20.9746L131.334 21.3156L131.875 21.1039L132.616 21.4331L134.403 26.2412L134.732 26.1237L134.544 25.5947L136.201 21.9269L136.965 21.633L137.682 21.9621L137.953 22.7263L132.298 35.2109L131.558 35.4813L130.841 35.1521L130.547 34.4233L133.556 27.793L134.073 27.5932L133.944 27.2875L133.415 27.4874L132.675 27.1464L130.876 22.3618L130.558 22.4441Z" fill="#231F20"/>
<path d="M142.702 25.3716L143.502 25.207L149.521 29.2275L149.673 30.0269L149.227 30.697L148.439 30.8498L143.737 27.7228L143.619 27.1585H143.302L143.408 27.7228L141.174 31.0614L140.621 31.1672V31.5199L141.186 31.4023L144.524 33.6359L144.689 34.4118L144.242 35.0819L143.455 35.2347L140.222 33.0599L140.116 32.5074L139.775 32.5662L139.881 33.154L137.647 36.4926L137.083 36.5984L137.153 36.9276L137.706 36.8218L142.408 39.9488L142.561 40.7365L142.114 41.4065L141.339 41.5476L135.273 37.5624L135.096 36.7865L142.702 25.3716Z" fill="#231F20"/>
<path d="M153.153 43.6516V43.2872L150.202 40.5599V39.9838H149.862V40.5716L146.029 44.6979H145.242L144.642 44.1454V43.3813L153.953 33.3418H154.752L158.878 37.1742V37.9853L158.326 38.5731V38.914L158.902 39.4548V40.2542L156.163 43.2049H155.352L154.775 42.6642H154.435L153.882 43.2637V43.6281L154.458 44.1571V44.9565L150.626 49.0828H149.838L149.262 48.5421V47.7544L153.153 43.6516ZM157.526 38.5849L154.587 35.8458V35.2815H154.258V35.8458L151.531 38.7965H150.955V39.1492H151.531L154.47 41.8765H154.834L157.562 38.9258L157.526 38.5849Z" fill="#231F20"/>
<path d="M166.425 48.8126L163.957 45.6386H163.639L160.454 48.1073V48.4482L162.911 51.6223L162.828 52.4099L162.193 52.9037V53.2681L162.687 53.9029L162.57 54.6788L159.396 57.1475L158.631 57.0535L158.138 56.4186H157.773L157.138 56.9124L156.351 56.7948L153.894 53.6208L153.988 52.8566L154.623 52.3629V51.9985L154.129 51.3636L154.223 50.5878L154.87 50.094L155.645 50.1763L156.139 50.8229L156.045 51.6105L155.41 52.1043V52.4452L157.867 55.6193H158.208L161.382 53.1623V52.7979L158.914 49.6238L159.031 48.8479L159.666 48.3542V48.0132L159.172 47.3784L159.29 46.5908L162.464 44.1221L163.251 44.2044L163.745 44.8392L164.086 44.9097L164.721 44.416L165.509 44.4983L167.977 47.6723L167.871 48.4717L167.237 48.9655V49.3064L167.73 49.9412L167.613 50.7288L166.978 51.2226L166.19 51.1403L165.697 50.4937L165.791 49.6943L166.425 49.2006V48.8126Z" fill="#231F20"/>
<path d="M178.781 72.8296L177.452 69.0325L177.158 68.8797L167.26 72.3712L167.119 72.6768L168.436 76.4739L168.741 76.6385L169.505 76.3681L170.223 76.6973L170.481 77.4614L170.14 78.1903L169.376 78.4489L168.671 78.0962L168.4 77.3321L168.083 77.191L167.319 77.4614L166.614 77.1088L165.297 73.3116L165.626 72.5945L166.378 72.3241L166.543 72.0185L166.284 71.2544L166.614 70.5373L176.512 67.0811L177.229 67.4337L177.499 68.1979L177.793 68.3389L178.557 68.0803L179.286 68.4212L180.615 72.2183L180.25 72.9472L179.486 73.2176L179.357 73.5115L179.615 74.2756L179.275 74.9927L178.51 75.2631L177.782 74.9104L177.523 74.1581L177.876 73.4527L178.64 73.1823L178.781 72.8296Z" fill="#231F20"/>
<path d="M183.248 86.0552L183.918 86.5254L184.047 87.313L183.577 87.9831L179.627 88.665L178.969 88.2065L178.828 87.4071L178.546 87.1955L177.77 87.3366L177.1 86.9016L176.959 86.1022L176.7 85.9023L169.611 87.1485L168.965 86.69L168.824 85.9023L169.282 85.244L176.418 83.9979L176.594 83.7393L176.465 82.9399L176.935 82.2816L177.711 82.1405L177.899 81.8466L177.723 81.059L178.181 80.4006L182.143 79.707L182.813 80.1655L182.942 80.9414L182.472 81.5997L178.51 82.2933L178.334 82.5755L178.475 83.3748L177.993 84.0097L177.217 84.1507L177.017 84.4329L177.158 85.2323L177.441 85.4204L178.217 85.2793L178.887 85.7495L179.028 86.5372L179.286 86.7253L183.248 86.0552Z" fill="#231F20"/>
<path d="M170.481 100.362L169.917 99.8093L169.835 94.1783L170.375 93.6023L184.059 93.3789L184.647 93.9432L184.741 99.5742L184.165 100.15H183.366L183.142 100.397V101.197L182.578 101.773L178.558 101.843L177.97 101.279V100.479L177.746 100.244H176.935L176.677 100.479V101.291L176.112 101.867H172.092L171.539 101.314V100.503L171.269 100.268L170.481 100.362ZM176.101 99.9739L176.359 99.7035L176.3 95.683L176.688 95.2833L176.453 95.0482L176.03 95.4479L171.963 95.5185L171.61 95.1658L171.375 95.4127L171.786 95.8006L171.845 99.8211L172.08 100.08L176.101 99.9739ZM182.79 99.6095L182.719 95.589L183.119 95.1775L182.884 94.9424L182.496 95.3539H178.475L178.064 94.9542L177.805 95.2011L178.217 95.6008L178.287 99.6212L178.546 99.8681H182.543L182.79 99.6095Z" fill="#231F20"/>
<path d="M183.812 107.192L184.306 107.839L183.224 115.01L182.566 115.48L181.767 115.362L181.285 114.716L182.131 109.143L182.59 108.803L182.402 108.532L181.943 108.873L177.958 108.274L177.629 107.815L177.335 108.015L177.676 108.473L177.076 112.447L176.441 112.929L175.642 112.811L175.172 112.153L175.771 108.179L176.23 107.839L176.03 107.568L175.548 107.909L171.574 107.31L171.234 106.851L170.963 107.051L171.304 107.509L170.458 113.082L169.811 113.552L169.012 113.434L168.553 112.8L169.611 105.628L170.246 105.146L183.812 107.192Z" fill="#231F20"/>
<path d="M171.669 124.402L171.998 124.238L173.232 120.417L173.738 120.158L173.585 119.864L173.056 120.111L167.695 118.383L167.354 117.678L167.601 116.902L168.295 116.549L181.367 120.758L181.755 121.463L180.027 126.812L179.298 127.177L178.534 126.93L178.24 127.106L177.993 127.858L177.276 128.223L173.455 126.988L173.079 126.271L173.326 125.519L173.185 125.202L172.421 124.955L172.092 125.119L171.857 125.872L171.14 126.236L165.72 124.555L165.379 123.85L165.614 123.097L166.32 122.721L171.669 124.402ZM178.111 126.213L179.345 122.392L179.851 122.133L179.709 121.839L179.204 122.098L175.372 120.922L175.113 120.417L174.796 120.558L175.054 121.064L173.879 124.896L174.055 125.202L177.84 126.389L178.111 126.213Z" fill="#231F20"/>
<path d="M166.543 135.77L166.884 135.664L168.73 132.138L169.27 131.961L169.165 131.644L168.612 131.808L163.604 129.222L163.381 128.47L163.745 127.753L164.486 127.518L176.665 133.748L176.923 134.501L174.314 139.509L173.538 139.755L172.821 139.379L172.503 139.509L172.139 140.202L171.375 140.449L167.848 138.603L167.601 137.839L167.954 137.134L167.871 136.805L167.154 136.44L166.802 136.546L166.449 137.24L165.685 137.487L160.677 134.912L160.453 134.148L160.806 133.454L161.559 133.196L166.543 135.77ZM172.597 138.615L174.443 135.088L174.984 134.912L174.89 134.606L174.349 134.771L170.822 132.937L170.646 132.384L170.317 132.479L170.481 133.019L168.647 136.546L168.753 136.887L172.28 138.733L172.597 138.615Z" fill="#231F20"/>
<path d="M166.085 150.97L166.202 151.782L165.72 152.428L164.932 152.534L155.222 145.339L155.105 144.563L155.587 143.917V143.564L154.94 143.082L154.834 142.295L157.185 139.062L157.961 138.956L158.608 139.438H158.961L159.443 138.791L160.218 138.674L169.917 145.868L170.058 146.656L169.576 147.303L168.777 147.408L159.066 140.226H158.737L156.386 143.458V143.799L166.085 150.97Z" fill="#231F20"/>
<path d="M158.337 155.696H157.761L150.449 148.184V147.397L151.025 146.833H151.813L161.37 156.649V157.472L160.794 158.024H159.983L159.419 157.448V156.884H159.066V157.472L158.49 158.036L153.365 157.954V158.306H153.929L156.739 161.186V161.998L156.186 162.55H155.375L145.818 152.734V151.946L146.382 151.394H147.275L152.342 156.602V157.166H152.683V156.602L153.271 156.037L158.384 156.108L158.337 155.696Z" fill="#231F20"/>
<path d="M148.333 164.525L147.769 164.431L141.774 155.837L141.926 155.062L142.585 154.603L143.361 154.732L151.202 165.947L151.072 166.747L150.414 167.205L149.615 167.064L149.156 166.406L149.262 165.842L148.909 165.771L148.827 166.347L148.169 166.817L143.125 165.9L143.055 166.253L143.607 166.359L145.959 169.65L145.829 170.45L145.183 170.897L144.383 170.744L136.542 159.529L136.695 158.753L137.342 158.306L138.118 158.424L142.279 164.384L142.185 164.936H142.526L142.62 164.372L143.278 163.914L148.322 164.807L148.333 164.525Z" fill="#231F20"/>
<path d="M139.681 173.483L139.422 174.247L132.898 177.386L132.134 177.116L131.781 176.387L132.051 175.634L137.118 173.189L137.659 173.377L137.777 173.072L137.236 172.884L135.519 169.227L135.708 168.698L135.378 168.569L135.19 169.098L131.569 170.85L130.817 170.603L130.464 169.874L130.735 169.122L134.356 167.37L134.896 167.558L135.002 167.241L134.461 167.041L132.71 163.42L132.898 162.879L132.58 162.762L132.392 163.303L127.29 165.771L126.526 165.501L126.174 164.784L126.456 164.043L132.98 160.893L133.733 161.139L139.681 173.483Z" fill="#231F20"/>
<path d="M118.638 173.154L118.944 173.33L122.8 172.155L123.305 172.437L123.47 172.143L122.964 171.849L121.412 166.477L121.8 165.783L122.576 165.56L123.258 165.924L127.138 179.079L126.773 179.784L121.365 181.383L120.648 180.983L120.425 180.207L120.119 180.066L119.355 180.29L118.65 179.902L117.474 176.046L117.85 175.329L118.603 175.105L118.791 174.811L118.556 174.035L118.238 173.859L117.486 174.083L116.781 173.706L115.182 168.299L115.582 167.605L116.334 167.382L117.039 167.746L118.638 173.154ZM120.766 179.502L124.622 178.326L125.127 178.609L125.292 178.315L124.786 178.044L123.611 174.188L123.881 173.683L123.587 173.506L123.317 174L119.449 175.176L119.285 175.493L120.46 179.349L120.766 179.502Z" fill="#231F20"/>
<path d="M107.388 181.935L111.385 181.442L111.585 181.195L111.091 177.198L110.832 176.974L106.835 177.468L106.2 176.986L106.106 176.187L105.813 175.963L105.013 176.069L104.402 175.575L103.908 171.578L104.378 170.967L105.178 170.873L105.401 170.579L105.307 169.78L105.801 169.169L109.798 168.675L110.409 169.145L110.503 169.944L110.797 170.168L111.596 170.074L112.208 170.544L112.302 171.343L111.831 171.978L111.032 172.084L110.397 171.59L110.303 170.779L110.033 170.579L106.036 171.073L105.824 171.343L106.318 175.329L106.6 175.552L110.585 175.058L111.208 175.564L111.302 176.363L111.585 176.551L112.384 176.457L113.007 176.963L113.501 180.948L113.019 181.583L112.219 181.688L111.996 181.935L112.09 182.746L111.62 183.381L107.635 183.875L107 183.37L106.894 182.57L106.612 182.382L105.813 182.476L105.201 181.982L105.095 181.183L105.566 180.548L106.377 180.454L107.012 180.948L107.117 181.747L107.388 181.935Z" fill="#231F20"/>
<path d="M67.465 176.21L71.2269 177.633L71.5325 177.503L75.2474 167.699L75.1063 167.393L71.3444 165.971L71.0153 166.1L70.7331 166.864L70.016 167.194L69.2637 166.911L68.9345 166.183L69.2166 165.43L69.9455 165.113L70.6979 165.395L71.0153 165.242L71.2974 164.49L72.0263 164.172L75.7881 165.595L76.129 166.312L75.8351 167.064L75.9645 167.393L76.7286 167.676L77.0578 168.393L73.3547 178.197L72.6141 178.526L71.8617 178.244L71.556 178.373L71.2739 179.126L70.5333 179.467L66.7832 178.044L66.454 177.292L66.7362 176.539L66.5951 176.246L65.8427 175.963L65.5135 175.223L65.7957 174.47L66.5246 174.141L67.2769 174.435L67.5943 175.152L67.3122 175.905L67.465 176.21Z" fill="#231F20"/>
<path d="M54.4043 171.143L53.6167 171.355L52.9231 170.943L52.7233 170.156L54.7335 166.688L55.5094 166.476L56.2147 166.888L56.5557 166.805L56.9554 166.124L57.7195 165.888L58.4131 166.3L58.7422 166.229L62.3748 159.964L63.1389 159.752L63.8325 160.152L64.0441 160.928L60.4116 167.193L60.4939 167.511L61.1874 167.91L61.3873 168.698L60.9876 169.38L61.0934 169.721L61.7752 170.109L61.9751 170.885L59.9648 174.411L59.1772 174.623L58.5071 174.235L58.3073 173.447L60.3175 169.921L60.2117 169.603L59.5181 169.192L59.33 168.416L59.7297 167.734L59.6357 167.405L58.9421 166.994L58.6129 167.088L58.2132 167.769L57.4256 167.981L56.7555 167.581L56.4499 167.664L54.4043 171.143Z" fill="#231F20"/>
<path d="M51.7593 152.228L52.5469 152.158L56.9083 155.684L57.0024 156.46L48.3266 167.041L47.5154 167.135L43.154 163.608L43.0835 162.797L43.6007 162.174V161.844L42.9777 161.339L42.8954 160.54L45.3994 157.471L46.2105 157.389L46.8336 157.895H47.1627L47.6682 157.271V156.919L47.0452 156.413L46.9629 155.614L49.5139 152.499L50.3015 152.428L50.9246 152.945H51.2773L51.7593 152.228ZM44.4001 162.174L47.5037 164.725L47.5624 165.289H47.8916L47.8328 164.725L50.3838 161.609H50.9481V161.257L50.3838 161.315L47.2568 158.647H46.8924L44.3414 161.75L44.4001 162.174ZM48.4324 156.837V157.201L51.5477 159.752V160.316H51.8768V159.74L54.4278 156.625H54.9921V156.296H54.4278L51.3125 153.756H50.9716L48.4324 156.837Z" fill="#231F20"/>
<path d="M37.9462 158.024H37.1351L32.3505 152.593L32.4092 151.781L33.0088 151.252H33.8199L37.5348 155.485V156.049H37.8639V155.485L40.8852 152.828H41.4495V152.475H40.8852L38.2284 149.466V148.678L38.8279 148.137H39.6273L42.2841 151.147V151.711H42.625V151.135L45.6463 148.478H46.2106V148.137H45.6345L41.9197 143.917V143.117L42.5192 142.577L43.3069 142.647L48.1032 148.078V148.866L37.9462 158.024Z" fill="#231F20"/>
<path d="M32.5386 137.675L32.4445 138.016L34.5841 141.413L34.4665 141.977L34.7957 142.048L34.9368 141.483L39.6391 138.474L40.4032 138.662L40.8264 139.344L40.6618 140.108L29.0824 147.397L28.3065 147.244L25.297 142.542L25.4851 141.754L26.1669 141.331L26.2257 140.99L25.8025 140.32L25.9788 139.532L29.388 137.392L30.1757 137.569L30.5871 138.227L30.928 138.333L31.6099 137.898L31.6804 137.545L31.2689 136.875L31.4453 136.099L36.2064 133.09L36.9705 133.278L37.3937 133.948L37.2291 134.724L32.5386 137.675ZM27.0133 141.448L29.1529 144.846L29.0236 145.398L29.3528 145.48L29.4703 144.916L32.8677 142.777L33.432 142.906L33.5143 142.565L32.9618 142.436L30.8222 139.038L30.4696 138.968L27.0721 141.107L27.0133 141.448Z" fill="#231F20"/>
<path d="M19.6543 129.563L18.8901 129.258L18.5845 128.517L18.9019 127.788L30.0346 123.086L30.7517 123.38L31.0691 124.12L31.4101 124.262L32.1507 123.944L32.8795 124.262L34.4195 127.965L34.1257 128.682L33.385 128.999L33.244 129.34L33.5614 130.081L33.2675 130.798L22.1347 135.5L21.3824 135.23L21.0649 134.477L21.3824 133.737L32.5151 129.034L32.6444 128.729L31.0809 125.014L30.7635 124.885L19.6543 129.563Z" fill="#231F20"/>
<path d="M19.5836 120.464L19.8775 119.982L30.0581 117.502L30.7282 117.925L30.9163 118.712L30.5166 119.394L17.209 122.627L16.5154 122.204L16.3273 121.416L16.7858 120.734L17.5734 120.546L18.0436 120.84L18.2435 120.558L17.738 120.264L17.5499 119.477L20.195 115.15L19.9011 114.974L19.6072 115.444L15.6925 116.326L14.9989 115.903L14.8108 115.15L15.2458 114.469L28.5416 111.271L29.2117 111.694L29.388 112.458L28.9883 113.14L21.9348 114.833L21.4881 114.551L21.3353 114.845L21.8173 115.139L22.0053 115.926L19.3015 120.288L19.5836 120.464Z" fill="#231F20"/>
<path d="M17.1032 107.368L17.4794 106.921L27.9186 106.134L28.5064 106.663V107.462L28.0009 108.073L14.4347 109.12L13.8116 108.591L13.7528 107.791L14.2818 107.18H15.093L15.5045 107.556L15.7513 107.298L15.2811 106.921L15.2223 106.122L18.5845 102.219L18.3141 101.984L17.9614 102.384L13.9644 102.678L13.3179 102.219V101.431L13.8469 100.832L27.4954 99.8091L28.0832 100.326V101.114L27.5777 101.714L20.3126 102.219L19.8894 101.855L19.6778 102.113L20.1127 102.489L20.1715 103.289L16.8564 107.156L17.1032 107.368Z" fill="#231F20"/>
<path d="M13.8233 95.3535L13.259 94.7304L13.8703 87.5124L14.4934 86.9951L15.3045 87.0657L15.8218 87.677L15.3751 93.2962L14.9401 93.6607L15.14 93.9193L15.6102 93.5549L19.6189 93.8958L19.9834 94.3307L20.2655 94.1074L19.9011 93.6724L20.242 89.6754L20.8298 89.1464L21.6409 89.217L22.1582 89.84L21.8173 93.837L21.3823 94.2132L21.5939 94.4601L22.0524 94.0956L26.0611 94.4365L26.4255 94.8715L26.6842 94.6599L26.308 94.2249L26.79 88.6174L27.366 88.1119L28.1772 88.1707L28.6709 88.782L28.0596 96.0001L27.46 96.5291L13.8233 95.3535Z" fill="#231F20"/>
<path d="M24.8503 77.3791L24.5329 77.5319L23.5454 81.4231L23.0517 81.717L23.228 82.0108L23.7335 81.717L29.1882 83.1159L29.5762 83.7977L29.3763 84.5736L28.718 84.9733L15.4574 81.6229L15.0225 80.9528L16.4214 75.4981L17.115 75.0867L17.9026 75.2865L18.1848 75.0867L18.3729 74.3225L19.0665 73.9229L22.9576 74.9103L23.3808 75.6039L23.181 76.3563L23.3456 76.662L24.1215 76.8618L24.4389 76.6737L24.627 75.9096L25.3206 75.4981L30.7752 76.8853L31.1632 77.5672L30.9751 78.3313L30.305 78.7545L24.8503 77.3791ZM18.3023 75.9801L17.3148 79.883L16.7858 80.1534L16.9387 80.4473L17.4324 80.1534L21.3236 81.1409L21.6175 81.6347L21.9231 81.4701L21.6292 80.9763L22.6637 77.0852L22.4756 76.7795L18.5727 75.792L18.3023 75.9801Z" fill="#231F20"/>
<path d="M22.9929 63.2603L21.3823 66.9516L21.4999 67.2572L25.1795 68.8678L25.5204 68.7502L27.1192 65.0706L27.848 64.765L28.5887 65.0824L28.9296 64.9531L29.247 64.2125L29.9876 63.9421L33.6789 65.5409L33.9611 66.258L33.6319 66.9986L33.773 67.3395L34.5018 67.6687L34.784 68.4093L33.1734 72.0889L32.4563 72.371L31.7157 72.0536L31.3748 72.1829L31.0574 72.9235L30.3403 73.2057L29.5997 72.8295L29.294 72.1006L29.6114 71.36L30.3638 71.0661L31.1044 71.3835L31.41 71.266L33.0206 67.5746L32.903 67.2572L29.2235 65.6467L28.8825 65.776L27.272 69.4556L26.5314 69.7377L25.8025 69.4085L25.4851 69.5614L25.1677 70.302L24.4153 70.5724L20.7358 69.0088L20.4301 68.28L20.7475 67.5394L20.6417 67.2102L19.9129 66.9516L19.5955 66.2227L21.206 62.5314L21.9584 62.2493L22.699 62.5667L23.0046 62.4256L23.3338 61.685L24.0744 61.4028L24.8033 61.732L25.1089 62.4609L24.7915 63.2015L24.0392 63.4248L23.2985 63.1074L22.9929 63.2603Z" fill="#231F20"/>
</g>
<path d="M98.7591 54.126C73.0877 54.126 52.1924 72.9259 52.1924 96.0454C52.2626 101.735 53.5445 107.344 55.9525 112.499C58.3606 117.655 61.8396 122.237 66.1577 125.943V142.624H131.349V125.943C135.684 122.247 139.179 117.667 141.602 112.511C144.024 107.355 145.318 101.742 145.396 96.0454C145.396 72.9259 124.442 54.126 98.7591 54.126ZM98.7591 63.4908C119.303 63.444 136.031 78.0766 136.031 96.0454C136.031 105.153 131.583 113.932 123.822 120.125L122.066 121.53V133.329H112.701V123.964H103.336V133.329H93.9713V123.964H84.6065V133.329H75.2416V121.53L73.474 120.125C65.7129 113.932 61.2646 105.153 61.2646 96.0454C61.4987 78.0766 78.215 63.444 98.7591 63.444V63.4908ZM80.1348 86.7274L70.7699 96.0922L75.4523 100.775L80.1348 96.0922L84.8172 100.775L89.4996 96.0922L80.1348 86.7274ZM117.114 86.7274L108.171 96.3966L112.994 100.88L117.477 96.0454L122.312 100.552L126.783 95.741L117.114 86.7274ZM98.7591 105.363L94.0767 114.728H103.442L98.7591 105.363Z" fill="#D00725"/>
<defs>
<clipPath id="clip0_66:143">
<rect width="171.482" height="171" fill="white" transform="translate(13.259 12.875)"/>
</clipPath>
</defs>
</svg>
