<svg width="146" height="153" viewBox="0 0 146 153" fill="none" xmlns="http://www.w3.org/2000/svg">
<g clip-path="url(#clip0_59:11)">
<path d="M131.68 0.807861H14.9548C7.58121 0.807861 1.60376 6.80833 1.60376 14.2103V138.274C1.60376 145.676 7.58121 151.676 14.9548 151.676H131.68C139.053 151.676 145.031 145.676 145.031 138.274V14.2103C145.031 6.80833 139.053 0.807861 131.68 0.807861Z" fill="black"/>
<path d="M132.222 0.105469H14.4069C10.8347 0.109795 7.41015 1.53659 4.88474 4.07274C2.35934 6.60889 0.939395 10.0472 0.936523 13.6331L0.936523 138.857C0.94083 142.442 2.36141 145.879 4.88666 148.414C7.4119 150.949 10.8356 152.375 14.4069 152.379H132.222C135.794 152.376 139.22 150.951 141.746 148.415C144.272 145.88 145.694 142.443 145.698 138.857V13.6331C145.695 10.0463 144.275 6.60712 141.748 4.07082C139.221 1.53451 135.795 0.108353 132.222 0.105469V0.105469ZM14.4069 1.73925H132.222C135.364 1.74213 138.376 2.99616 140.597 5.22607C142.818 7.45598 144.068 10.4796 144.071 13.6331V21.2574H2.56403V13.6331C2.56547 10.4801 3.81348 7.45647 6.03398 5.2264C8.25448 2.99633 11.2659 1.74213 14.4069 1.73925ZM132.222 150.745H14.4069C11.2668 150.742 8.25624 149.489 6.03589 147.26C3.81555 145.031 2.56691 142.009 2.56403 138.857V22.9075H144.076V138.857C144.072 142.01 142.821 145.033 140.599 147.262C138.376 149.491 135.364 150.744 132.222 150.745Z" fill="white"/>
<path d="M114.629 17.1621C115.752 17.1621 116.851 16.8277 117.785 16.2011C118.719 15.5746 119.447 14.6841 119.877 13.6422C120.307 12.6003 120.419 11.4539 120.2 10.3478C119.981 9.24175 119.44 8.22577 118.645 7.42835C117.851 6.63092 116.839 6.08787 115.737 5.86786C114.635 5.64786 113.493 5.76077 112.455 6.19233C111.417 6.6239 110.53 7.35472 109.906 8.29239C109.282 9.23006 108.949 10.3325 108.949 11.4602C108.95 12.972 109.549 14.4214 110.614 15.4904C111.679 16.5594 113.123 17.1606 114.629 17.1621ZM114.629 7.39208C115.43 7.39208 116.214 7.63067 116.88 8.07768C117.547 8.52469 118.066 9.16004 118.373 9.90339C118.68 10.6467 118.76 11.4647 118.604 12.2538C118.447 13.043 118.061 13.7678 117.495 14.3368C116.928 14.9057 116.206 15.2932 115.42 15.4501C114.633 15.6071 113.819 15.5265 113.078 15.2186C112.338 14.9107 111.705 14.3893 111.259 13.7203C110.814 13.0513 110.576 12.2648 110.576 11.4602C110.578 10.3817 111.005 9.3478 111.765 8.58519C112.525 7.82259 113.555 7.39352 114.629 7.39208Z" fill="white"/>
<path d="M129.363 17.1621C130.487 17.1621 131.585 16.8277 132.519 16.2011C133.453 15.5746 134.181 14.6841 134.611 13.6422C135.041 12.6003 135.153 11.4539 134.934 10.3478C134.715 9.24175 134.174 8.22577 133.38 7.42835C132.585 6.63092 131.573 6.08787 130.471 5.86786C129.37 5.64786 128.228 5.76077 127.19 6.19233C126.152 6.6239 125.265 7.35472 124.641 8.29239C124.016 9.23006 123.683 10.3325 123.683 11.4602C123.686 12.9715 124.286 14.4202 125.35 15.4888C126.415 16.5575 127.858 17.1592 129.363 17.1621ZM129.363 7.39208C130.165 7.39208 130.948 7.63067 131.615 8.07768C132.281 8.52469 132.801 9.16004 133.107 9.90339C133.414 10.6467 133.494 11.4647 133.338 12.2538C133.182 13.043 132.796 13.7678 132.229 14.3368C131.662 14.9057 130.94 15.2932 130.154 15.4501C129.368 15.6071 128.553 15.5265 127.813 15.2186C127.072 14.9107 126.439 14.3893 125.994 13.7203C125.549 13.0513 125.311 12.2648 125.311 11.4602C125.312 10.3817 125.74 9.3478 126.499 8.58519C127.259 7.82259 128.289 7.39352 129.363 7.39208Z" fill="white"/>
<path d="M29.7497 56.4246H27.4248V70.2995C27.4248 70.72 27.4001 70.8436 26.9796 70.8436H22.7504V66.9359L20.475 67.4058V69.8296C20.475 72.2039 21.0191 72.9211 22.7999 72.9211H27.4248C29.4034 72.9211 29.7497 71.8082 29.7497 69.7801V56.4246ZM44.8698 59.8377C44.8698 57.7849 44.6967 56.4246 42.4213 56.4246H35.6199C33.4682 56.4246 33.394 57.9333 33.394 59.8377V69.236C33.394 71.6103 33.394 72.9211 35.8425 72.9211H42.6439C44.7709 72.9211 44.8698 71.3877 44.8698 69.0134V59.8377ZM42.2482 58.5022C42.4708 58.5022 42.5945 58.6258 42.5945 58.8484V70.5221C42.5945 70.7447 42.4955 70.8436 42.2729 70.8436H35.9909C35.7683 70.8436 35.6694 70.7447 35.6694 70.5221V58.8484C35.6694 58.6258 35.7931 58.5022 36.0156 58.5022H42.2482ZM50.8396 56.4246H48.5642V72.9211H50.8396V56.4246ZM66.0282 72.9211V56.4246H63.8023V68.1231L56.7041 56.4246H54.6266V72.9211H56.8525V61.2227L63.9507 72.9211H66.0282ZM31.3078 80.5022V78.4246H19.7578V80.5022H24.3333V94.9211H26.6581V80.5022H31.3078ZM44.7756 94.9211V78.4246H42.4507V85.2755H35.6246V78.4246H33.2997V94.9211H35.6246V87.353H42.4507V94.9211H44.7756ZM58.4825 94.9211V92.8436H50.8155V87.4025H55.7867V85.325H50.8155V80.5022H58.3094V78.4246H48.5401V94.9211H58.4825ZM32.6186 100.425H30.3432V114.176C30.3432 114.745 30.1948 114.844 29.8733 114.844H24.2343C23.8139 114.844 23.7397 114.745 23.7397 114.176V100.425H21.4148V113.508C21.4148 116.204 21.9342 116.921 23.7644 116.921H30.3432C32.3713 116.921 32.6186 115.437 32.6186 113.434V100.425ZM46.7306 103.046C46.7306 101.562 46.1617 100.425 44.1089 100.425H36.343V116.921H38.6183V110.417H43.9111C45.7907 110.417 46.7306 109.773 46.7306 107.77V103.046ZM44.4552 107.276C44.4552 108.042 44.3068 108.339 43.4164 108.339H38.6183V102.502H43.4659C44.381 102.502 44.4552 102.923 44.4552 103.813V107.276ZM60.1889 103.046C60.1889 101.562 59.62 100.425 57.5425 100.425H49.5787V116.921H51.854V110.07H53.5606L58.3339 116.921H61.1534L56.2811 110.046H57.3694C59.249 110.046 60.1889 109.402 60.1889 107.399V103.046ZM57.864 106.905C57.864 107.696 57.7156 107.993 56.85 107.993H51.854V102.502H56.4543C57.8393 102.502 57.864 102.873 57.864 103.788V106.905ZM65.7177 100.425H63.4423V116.921H65.7177V100.425ZM79.917 109.749C79.917 108.141 79.175 107.523 77.6911 107.523H71.879C71.5822 107.523 71.4833 107.449 71.4833 107.127V102.898C71.4833 102.576 71.5575 102.502 71.8542 102.502H77.4932V104.827L79.7933 104.332V103.269C79.7933 101.364 79.5707 100.425 77.419 100.425H71.4585C69.5789 100.425 69.2079 101.241 69.2079 103.491V106.88C69.2079 108.933 69.7273 109.6 71.508 109.6H77.3201C77.5427 109.6 77.6416 109.724 77.6416 109.996V114.448C77.6416 114.819 77.4932 114.844 77.2212 114.844H71.2854V112.544L69.01 113.038V114.745C69.01 116.229 69.6778 116.921 71.1865 116.921H77.5922C79.4718 116.921 79.917 116.253 79.917 114.151V109.749ZM85.5713 100.425H83.2959V116.921H85.5713V100.425ZM100.76 116.921V100.425H98.5339V112.123L91.4357 100.425H89.3582V116.921H91.5841V105.223L98.6823 116.921H100.76ZM115.73 107.919H110.239V109.897H113.455V114.398C113.455 114.819 113.356 114.844 112.985 114.844H107.098C106.727 114.844 106.703 114.695 106.703 114.374V102.923C106.703 102.527 106.826 102.502 107.197 102.502H113.455V104.827L115.73 104.332V102.774C115.73 101.191 115.087 100.425 113.43 100.425H106.703C104.823 100.425 104.427 101.389 104.427 103.467V113.904C104.427 116.154 104.947 116.921 106.727 116.921H113.405C115.087 116.921 115.73 116.253 115.73 113.929V107.919Z" fill="white"/>
<g clip-path="url(#clip1_59:11)">
<path d="M126.336 49.1539C132.548 60.2704 128.962 74.6395 117.919 81.0396C106.876 87.4397 92.6903 83.3706 86.2029 72.4139C85.6636 71.4761 84.2205 72.3125 84.7723 73.2431C90.0434 82.1497 100.187 87.1236 110.393 85.4849C115.48 84.6195 120.17 82.1925 123.822 78.5356C127.473 74.8787 129.908 70.1704 130.794 65.0543C131.721 59.3054 130.657 53.4013 127.781 48.3288C127.242 47.391 125.82 48.2148 126.347 49.1597L126.336 49.1539Z" fill="white"/>
<path d="M96.585 64.3911C97.8305 63.6692 98.5013 62.3405 98.6485 60.8731C98.7959 59.4045 98.4307 57.7429 97.5529 56.2167C96.675 54.6904 95.4242 53.5421 94.0835 52.9359C92.744 52.3302 91.2623 52.249 90.0168 52.9708C88.7713 53.6927 88.1005 55.0214 87.9533 56.4888C87.806 57.9574 88.1712 59.619 89.049 61.1453C89.9268 62.6716 91.1776 63.8198 92.5183 64.4261C93.8578 65.0318 95.3395 65.113 96.585 64.3911Z" fill="white" stroke="black" stroke-width="1.28899"/>
<path d="M114.224 54.1682C115.469 53.4463 116.14 52.1176 116.287 50.6502C116.435 49.1816 116.069 47.52 115.192 45.9938C114.314 44.4675 113.063 43.3192 111.722 42.713C110.383 42.1073 108.901 42.0261 107.655 42.7479C106.41 43.4698 105.739 44.7985 105.592 46.2659C105.445 47.7345 105.81 49.3961 106.688 50.9224C107.565 52.4487 108.816 53.5969 110.157 54.2032C111.496 54.8089 112.978 54.8901 114.224 54.1682Z" fill="white" stroke="black" stroke-width="1.28899"/>
</g>
</g>
<defs>
<clipPath id="clip0_59:11">
<rect width="144.767" height="152.273" fill="white" transform="translate(0.936523 0.105469)"/>
</clipPath>
<clipPath id="clip1_59:11">
<rect width="49.6969" height="39.2729" fill="white" transform="matrix(0.865191 -0.501442 0.49856 0.866855 77.6602 60.8772)"/>
</clipPath>
</defs>
</svg>
