<svg width="152" height="153" viewBox="0 0 152 153" fill="none" xmlns="http://www.w3.org/2000/svg">
<circle cx="76.1307" cy="76.5204" r="75.5262" fill="white"/>
<path d="M76.1311 15.0615C42.0992 15.0615 14.3784 42.6503 14.3784 76.5202C14.3784 110.39 42.0992 137.979 76.1311 137.979C110.163 137.979 137.884 110.39 137.884 76.5202C137.884 42.6503 110.163 15.0615 76.1311 15.0615ZM76.1311 27.3533C103.488 27.3533 125.533 49.2932 125.533 76.5202C125.533 103.747 103.488 125.687 76.1311 125.687C48.7739 125.687 26.729 103.747 26.729 76.5202C26.729 49.2932 48.7739 27.3533 76.1311 27.3533ZM45.2548 58.0826V64.2284C45.2548 71.0196 50.7816 76.5202 57.6053 76.5202C67.4487 76.5202 69.9558 70.3743 69.9558 70.3743L45.2548 58.0826ZM107.007 58.0826L82.3064 70.3743C82.3064 70.3743 85.7831 76.5202 94.6569 76.5202C101.481 76.5202 107.007 71.0196 107.007 64.2284V58.0826ZM64.5525 88.8959C62.6285 88.7476 60.6719 88.7513 58.739 88.9679C56.9173 89.2937 47.5705 90.9261 45.2548 101.104C50.7446 98.1659 55.5266 97.5782 59.0526 98.7029C62.6775 99.5326 70.1821 102.137 75.709 104.381C81.137 106.63 85.9822 108.111 92.5342 106.673C99.0738 105.223 103.444 99.8929 107.007 94.9578C94.6569 98.7989 84.3087 94.4215 79.4117 92.461C75.7899 91.1335 70.3244 89.341 64.5525 88.8959Z" fill="#D00725"/>
</svg>