<svg width="483" height="44" viewBox="0 0 483 44" fill="none" xmlns="http://www.w3.org/2000/svg">
<path d="M0 44V35L15 20H6L15 11H6V29H0V5H24V11L21 14H24V20L0 44ZM27 29V23H51V29H27ZM27 20V14H51V20H27ZM27 11V5H51V11H27ZM60 29L54 23V5H78V11H60V20L63 23H78V29H60ZM99 23V11H87V23H99ZM81 29V5H105V29H81ZM108 29V5L120 17L132 5V29H126V20L120 26L114 20V29H108ZM135 29V23H159V29H135ZM135 20V14H159V20H135ZM135 11V5H159V11H135ZM174 35V5H198V29H192V11H180V20L186 14L190.5 18.5L174 35ZM219 29L213 23V5H237V11H219V20L222 23H237V29H219ZM249 38V18.5L240 9.5V0.5L252 12.5L259.5 5H268.5L255 18.5V32L249 38ZM267 44V35L282 20H273L282 11H273V29H267V5H291V11L288 14H291V20L267 44ZM294 29V23H318V29H294ZM294 20V14H318V20H294ZM294 11V5H318V11H294ZM348 41L327 20L336 11H327V29H321V5H345V11L336 20L348 32V41ZM348 29V5H354V23H363L366 20V5H372V23L366 29H348ZM399 33.5L381 15.5V29H375V0.5L393 18.5V5H399V33.5ZM426 33.5L408 15.5V29H402V0.5L420 18.5V5H426V33.5ZM429 29V23H453V29H429ZM429 20V14H453V20H429ZM429 11V5H453V11H429ZM483 41L462 20L471 11H462V29H456V5H480V11L471 20L483 32V41Z" fill="white"/>
</svg>
