<svg width="1063" height="162" viewBox="0 0 1063 162" fill="none" xmlns="http://www.w3.org/2000/svg">
<path d="M23.3296 105L22.2689 106.061L22.7083 106.5H23.3296V105ZM2.07959 83.75H0.57959V84.3713L1.01893 84.8107L2.07959 83.75ZM2.07959 20V18.5H0.57959V20H2.07959ZM87.0796 20H88.5796V18.5H87.0796V20ZM87.0796 41.25V42.75H88.5796V41.25H87.0796ZM23.3296 41.25V39.75H21.8296V41.25H23.3296ZM23.3296 73.125H21.8296V73.7463L22.2689 74.1857L23.3296 73.125ZM33.9546 83.75L32.8939 84.8107L33.3333 85.25H33.9546V83.75ZM87.0796 83.75H88.5796V82.25H87.0796V83.75ZM87.0796 105V106.5H88.5796V105H87.0796ZM24.3902 103.939L3.14025 82.6893L1.01893 84.8107L22.2689 106.061L24.3902 103.939ZM3.57959 83.75V20H0.57959V83.75H3.57959ZM2.07959 21.5H87.0796V18.5H2.07959V21.5ZM85.5796 20V41.25H88.5796V20H85.5796ZM87.0796 39.75H23.3296V42.75H87.0796V39.75ZM21.8296 41.25V73.125H24.8296V41.25H21.8296ZM22.2689 74.1857L32.8939 84.8107L35.0153 82.6893L24.3902 72.0643L22.2689 74.1857ZM33.9546 85.25H87.0796V82.25H33.9546V85.25ZM85.5796 83.75V105H88.5796V83.75H85.5796ZM87.0796 103.5H23.3296V106.5H87.0796V103.5ZM129.58 136.875H128.08V140.496L130.64 137.936L129.58 136.875ZM129.58 67.8125H131.08V67.1912L130.64 66.7518L129.58 67.8125ZM97.7046 35.9375H96.2046V36.5588L96.6439 36.9982L97.7046 35.9375ZM97.7046 4.0625L98.7653 3.00184L96.2046 0.441179V4.0625H97.7046ZM140.205 46.5625L139.144 47.6232L140.205 48.6838L141.265 47.6232L140.205 46.5625ZM166.767 20V18.5H166.146L165.706 18.9393L166.767 20ZM198.642 20L199.703 21.0607L202.263 18.5H198.642V20ZM150.83 67.8125L149.769 66.7518L149.33 67.1912V67.8125H150.83ZM150.83 115.625L151.89 116.686L152.33 116.246V115.625H150.83ZM131.08 136.875V67.8125H128.08V136.875H131.08ZM130.64 66.7518L98.7653 34.8768L96.6439 36.9982L128.519 68.8732L130.64 66.7518ZM99.2046 35.9375V4.0625H96.2046V35.9375H99.2046ZM96.6439 5.12316L139.144 47.6232L141.265 45.5018L98.7653 3.00184L96.6439 5.12316ZM141.265 47.6232L167.828 21.0607L165.706 18.9393L139.144 45.5018L141.265 47.6232ZM166.767 21.5H198.642V18.5H166.767V21.5ZM197.581 18.9393L149.769 66.7518L151.89 68.8732L199.703 21.0607L197.581 18.9393ZM149.33 67.8125V115.625H152.33V67.8125H149.33ZM149.769 114.564L128.519 135.814L130.64 137.936L151.89 116.686L149.769 114.564ZM193.33 158.125H191.83V161.746L194.39 159.186L193.33 158.125ZM193.33 126.25L192.269 125.189L191.83 125.629V126.25H193.33ZM246.455 73.125L247.515 74.1857L250.076 71.625H246.455V73.125ZM214.58 73.125L213.519 72.0643L210.958 74.625H214.58V73.125ZM246.455 41.25L247.515 42.3107L250.076 39.75H246.455V41.25ZM214.58 41.25V39.75H213.08V41.25H214.58ZM214.58 105V106.5H216.08V105H214.58ZM193.33 105H191.83V106.5H193.33V105ZM193.33 20V18.5H191.83V20H193.33ZM278.33 20H279.83V18.5H278.33V20ZM278.33 41.25L279.39 42.3107L279.83 41.8713V41.25H278.33ZM267.705 51.875L266.644 50.8143L264.083 53.375H267.705V51.875ZM278.33 51.875H279.83V50.375H278.33V51.875ZM278.33 73.125L279.39 74.1857L279.83 73.7463V73.125H278.33ZM194.83 158.125V126.25H191.83V158.125H194.83ZM194.39 127.311L247.515 74.1857L245.394 72.0643L192.269 125.189L194.39 127.311ZM246.455 71.625H214.58V74.625H246.455V71.625ZM215.64 74.1857L247.515 42.3107L245.394 40.1893L213.519 72.0643L215.64 74.1857ZM246.455 39.75H214.58V42.75H246.455V39.75ZM213.08 41.25V105H216.08V41.25H213.08ZM214.58 103.5H193.33V106.5H214.58V103.5ZM194.83 105V20H191.83V105H194.83ZM193.33 21.5H278.33V18.5H193.33V21.5ZM276.83 20V41.25H279.83V20H276.83ZM277.269 40.1893L266.644 50.8143L268.765 52.9357L279.39 42.3107L277.269 40.1893ZM267.705 53.375H278.33V50.375H267.705V53.375ZM276.83 51.875V73.125H279.83V51.875H276.83ZM277.269 72.0643L192.269 157.064L194.39 159.186L279.39 74.1857L277.269 72.0643ZM288.955 105H287.455V106.5H288.955V105ZM288.955 83.75V82.25H287.455V83.75H288.955ZM373.955 83.75H375.455V82.25H373.955V83.75ZM373.955 105V106.5H375.455V105H373.955ZM288.955 73.125H287.455V74.625H288.955V73.125ZM288.955 51.875V50.375H287.455V51.875H288.955ZM373.955 51.875H375.455V50.375H373.955V51.875ZM373.955 73.125V74.625H375.455V73.125H373.955ZM288.955 41.25H287.455V42.75H288.955V41.25ZM288.955 20V18.5H287.455V20H288.955ZM373.955 20H375.455V18.5H373.955V20ZM373.955 41.25V42.75H375.455V41.25H373.955ZM290.455 105V83.75H287.455V105H290.455ZM288.955 85.25H373.955V82.25H288.955V85.25ZM372.455 83.75V105H375.455V83.75H372.455ZM373.955 103.5H288.955V106.5H373.955V103.5ZM290.455 73.125V51.875H287.455V73.125H290.455ZM288.955 53.375H373.955V50.375H288.955V53.375ZM372.455 51.875V73.125H375.455V51.875H372.455ZM373.955 71.625H288.955V74.625H373.955V71.625ZM290.455 41.25V20H287.455V41.25H290.455ZM288.955 21.5H373.955V18.5H288.955V21.5ZM372.455 20V41.25H375.455V20H372.455ZM373.955 39.75H288.955V42.75H373.955V39.75ZM480.205 147.5L479.144 148.561L481.705 151.121V147.5H480.205ZM405.83 73.125L404.769 72.0643L403.708 73.125L404.769 74.1857L405.83 73.125ZM437.705 41.25L438.765 42.3107L441.326 39.75H437.705V41.25ZM405.83 41.25V39.75H404.33V41.25H405.83ZM405.83 105V106.5H407.33V105H405.83ZM384.58 105H383.08V106.5H384.58V105ZM384.58 20V18.5H383.08V20H384.58ZM469.58 20H471.08V18.5H469.58V20ZM469.58 41.25L470.64 42.3107L471.08 41.8713V41.25H469.58ZM437.705 73.125L436.644 72.0643L435.583 73.125L436.644 74.1857L437.705 73.125ZM480.205 115.625H481.705V115.004L481.265 114.564L480.205 115.625ZM481.265 146.439L406.89 72.0643L404.769 74.1857L479.144 148.561L481.265 146.439ZM406.89 74.1857L438.765 42.3107L436.644 40.1893L404.769 72.0643L406.89 74.1857ZM437.705 39.75H405.83V42.75H437.705V39.75ZM404.33 41.25V105H407.33V41.25H404.33ZM405.83 103.5H384.58V106.5H405.83V103.5ZM386.08 105V20H383.08V105H386.08ZM384.58 21.5H469.58V18.5H384.58V21.5ZM468.08 20V41.25H471.08V20H468.08ZM468.519 40.1893L436.644 72.0643L438.765 74.1857L470.64 42.3107L468.519 40.1893ZM436.644 74.1857L479.144 116.686L481.265 114.564L438.765 72.0643L436.644 74.1857ZM478.705 115.625V147.5H481.705V115.625H478.705ZM480.205 105H478.705V106.5H480.205V105ZM480.205 20V18.5H478.705V20H480.205ZM501.455 20H502.955V18.5H501.455V20ZM501.455 83.75H499.955V85.25H501.455V83.75ZM533.33 83.75V85.25H533.951L534.39 84.8107L533.33 83.75ZM543.955 73.125L545.015 74.1857L545.455 73.7463V73.125H543.955ZM543.955 20V18.5H542.455V20H543.955ZM565.205 20H566.705V18.5H565.205V20ZM565.205 83.75L566.265 84.8107L566.705 84.3713V83.75H565.205ZM543.955 105V106.5H544.576L545.015 106.061L543.955 105ZM481.705 105V20H478.705V105H481.705ZM480.205 21.5H501.455V18.5H480.205V21.5ZM499.955 20V83.75H502.955V20H499.955ZM501.455 85.25H533.33V82.25H501.455V85.25ZM534.39 84.8107L545.015 74.1857L542.894 72.0643L532.269 82.6893L534.39 84.8107ZM545.455 73.125V20H542.455V73.125H545.455ZM543.955 21.5H565.205V18.5H543.955V21.5ZM563.705 20V83.75H566.705V20H563.705ZM564.144 82.6893L542.894 103.939L545.015 106.061L566.265 84.8107L564.144 82.6893ZM543.955 103.5H480.205V106.5H543.955V103.5ZM660.83 120.938L659.769 121.998L662.33 124.559V120.938H660.83ZM597.08 57.1875L598.14 56.1268L595.58 53.5662V57.1875H597.08ZM597.08 105V106.5H598.58V105H597.08ZM575.83 105H574.33V106.5H575.83V105ZM575.83 4.0625L576.89 3.00184L574.33 0.441179V4.0625H575.83ZM639.58 67.8125L638.519 68.8732L641.08 71.4338V67.8125H639.58ZM639.58 20V18.5H638.08V20H639.58ZM660.83 20H662.33V18.5H660.83V20ZM661.89 119.877L598.14 56.1268L596.019 58.2482L659.769 121.998L661.89 119.877ZM595.58 57.1875V105H598.58V57.1875H595.58ZM597.08 103.5H575.83V106.5H597.08V103.5ZM577.33 105V4.0625H574.33V105H577.33ZM574.769 5.12316L638.519 68.8732L640.64 66.7518L576.89 3.00184L574.769 5.12316ZM641.08 67.8125V20H638.08V67.8125H641.08ZM639.58 21.5H660.83V18.5H639.58V21.5ZM659.33 20V120.938H662.33V20H659.33ZM756.455 120.938L755.394 121.998L757.955 124.559V120.938H756.455ZM692.705 57.1875L693.765 56.1268L691.205 53.5662V57.1875H692.705ZM692.705 105V106.5H694.205V105H692.705ZM671.455 105H669.955V106.5H671.455V105ZM671.455 4.0625L672.515 3.00184L669.955 0.441179V4.0625H671.455ZM735.205 67.8125L734.144 68.8732L736.705 71.4338V67.8125H735.205ZM735.205 20V18.5H733.705V20H735.205ZM756.455 20H757.955V18.5H756.455V20ZM757.515 119.877L693.765 56.1268L691.644 58.2482L755.394 121.998L757.515 119.877ZM691.205 57.1875V105H694.205V57.1875H691.205ZM692.705 103.5H671.455V106.5H692.705V103.5ZM672.955 105V4.0625H669.955V105H672.955ZM670.394 5.12316L734.144 68.8732L736.265 66.7518L672.515 3.00184L670.394 5.12316ZM736.705 67.8125V20H733.705V67.8125H736.705ZM735.205 21.5H756.455V18.5H735.205V21.5ZM754.955 20V120.938H757.955V20H754.955ZM767.08 105H765.58V106.5H767.08V105ZM767.08 83.75V82.25H765.58V83.75H767.08ZM852.08 83.75H853.58V82.25H852.08V83.75ZM852.08 105V106.5H853.58V105H852.08ZM767.08 73.125H765.58V74.625H767.08V73.125ZM767.08 51.875V50.375H765.58V51.875H767.08ZM852.08 51.875H853.58V50.375H852.08V51.875ZM852.08 73.125V74.625H853.58V73.125H852.08ZM767.08 41.25H765.58V42.75H767.08V41.25ZM767.08 20V18.5H765.58V20H767.08ZM852.08 20H853.58V18.5H852.08V20ZM852.08 41.25V42.75H853.58V41.25H852.08ZM768.58 105V83.75H765.58V105H768.58ZM767.08 85.25H852.08V82.25H767.08V85.25ZM850.58 83.75V105H853.58V83.75H850.58ZM852.08 103.5H767.08V106.5H852.08V103.5ZM768.58 73.125V51.875H765.58V73.125H768.58ZM767.08 53.375H852.08V50.375H767.08V53.375ZM850.58 51.875V73.125H853.58V51.875H850.58ZM852.08 71.625H767.08V74.625H852.08V71.625ZM768.58 41.25V20H765.58V41.25H768.58ZM767.08 21.5H852.08V18.5H767.08V21.5ZM850.58 20V41.25H853.58V20H850.58ZM852.08 39.75H767.08V42.75H852.08V39.75ZM958.33 147.5L957.269 148.561L959.83 151.121V147.5H958.33ZM883.955 73.125L882.894 72.0643L881.833 73.125L882.894 74.1857L883.955 73.125ZM915.83 41.25L916.89 42.3107L919.451 39.75H915.83V41.25ZM883.955 41.25V39.75H882.455V41.25H883.955ZM883.955 105V106.5H885.455V105H883.955ZM862.705 105H861.205V106.5H862.705V105ZM862.705 20V18.5H861.205V20H862.705ZM947.705 20H949.205V18.5H947.705V20ZM947.705 41.25L948.765 42.3107L949.205 41.8713V41.25H947.705ZM915.83 73.125L914.769 72.0643L913.708 73.125L914.769 74.1857L915.83 73.125ZM958.33 115.625H959.83V115.004L959.39 114.564L958.33 115.625ZM959.39 146.439L885.015 72.0643L882.894 74.1857L957.269 148.561L959.39 146.439ZM885.015 74.1857L916.89 42.3107L914.769 40.1893L882.894 72.0643L885.015 74.1857ZM915.83 39.75H883.955V42.75H915.83V39.75ZM882.455 41.25V105H885.455V41.25H882.455ZM883.955 103.5H862.705V106.5H883.955V103.5ZM864.205 105V20H861.205V105H864.205ZM862.705 21.5H947.705V18.5H862.705V21.5ZM946.205 20V41.25H949.205V20H946.205ZM946.644 40.1893L914.769 72.0643L916.89 74.1857L948.765 42.3107L946.644 40.1893ZM914.769 74.1857L957.269 116.686L959.39 114.564L916.89 72.0643L914.769 74.1857ZM956.83 115.625V147.5H959.83V115.625H956.83ZM942.392 105L941.331 103.939L938.771 106.5H942.392V105ZM963.642 83.75V82.25H963.021L962.581 82.6893L963.642 83.75ZM1011.45 83.75V85.25H1012.08L1012.52 84.8107L1011.45 83.75ZM1022.08 73.125L1023.14 74.1857L1025.7 71.625H1022.08V73.125ZM958.33 73.125H956.83V74.625H958.33V73.125ZM958.33 41.25L957.269 40.1893L956.83 40.6287V41.25H958.33ZM979.58 20V18.5H978.958L978.519 18.9393L979.58 20ZM1059.27 20L1060.33 21.0607L1062.89 18.5H1059.27V20ZM1038.02 41.25V42.75H1038.64L1039.08 42.3107L1038.02 41.25ZM990.205 41.25V39.75H989.583L989.144 40.1893L990.205 41.25ZM979.58 51.875L978.519 50.8143L975.958 53.375H979.58V51.875ZM1043.33 51.875H1044.83V50.375H1043.33V51.875ZM1043.33 83.75L1044.39 84.8107L1044.83 84.3713V83.75H1043.33ZM1022.08 105V106.5H1022.7L1023.14 106.061L1022.08 105ZM943.453 106.061L964.703 84.8107L962.581 82.6893L941.331 103.939L943.453 106.061ZM963.642 85.25H1011.45V82.25H963.642V85.25ZM1012.52 84.8107L1023.14 74.1857L1021.02 72.0643L1010.39 82.6893L1012.52 84.8107ZM1022.08 71.625H958.33V74.625H1022.08V71.625ZM959.83 73.125V41.25H956.83V73.125H959.83ZM959.39 42.3107L980.64 21.0607L978.519 18.9393L957.269 40.1893L959.39 42.3107ZM979.58 21.5H1059.27V18.5H979.58V21.5ZM1058.21 18.9393L1036.96 40.1893L1039.08 42.3107L1060.33 21.0607L1058.21 18.9393ZM1038.02 39.75H990.205V42.75H1038.02V39.75ZM989.144 40.1893L978.519 50.8143L980.64 52.9357L991.265 42.3107L989.144 40.1893ZM979.58 53.375H1043.33V50.375H979.58V53.375ZM1041.83 51.875V83.75H1044.83V51.875H1041.83ZM1042.27 82.6893L1021.02 103.939L1023.14 106.061L1044.39 84.8107L1042.27 82.6893ZM1022.08 103.5H942.392V106.5H1022.08V103.5Z" fill="white"/>
</svg>
