<svg width="1059" height="155" viewBox="0 0 1059 155" fill="none" xmlns="http://www.w3.org/2000/svg">
<path d="M22.1704 101.5L0.92041 80.25V16.5H85.9204V37.75H22.1704V69.625L32.7954 80.25H85.9204V101.5H22.1704ZM128.42 133.375V64.3125L96.5454 32.4375V0.5625L139.045 43.0625L165.608 16.5H197.483L149.67 64.3125V112.125L128.42 133.375ZM192.17 154.625V122.75L245.295 69.625H213.42L245.295 37.75H213.42V101.5H192.17V16.5H277.17V37.75L266.545 48.375H277.17V69.625L192.17 154.625ZM287.795 101.5V80.25H372.795V101.5H287.795ZM287.795 69.625V48.375H372.795V69.625H287.795ZM287.795 37.75V16.5H372.795V37.75H287.795ZM479.045 144L404.67 69.625L436.545 37.75H404.67V101.5H383.42V16.5H468.42V37.75L436.545 69.625L479.045 112.125V144ZM479.045 101.5V16.5H500.295V80.25H532.17L542.795 69.625V16.5H564.045V80.25L542.795 101.5H479.045ZM659.67 117.438L595.92 53.6875V101.5H574.67V0.5625L638.42 64.3125V16.5H659.67V117.438ZM755.295 117.438L691.545 53.6875V101.5H670.295V0.5625L734.045 64.3125V16.5H755.295V117.438ZM765.92 101.5V80.25H850.92V101.5H765.92ZM765.92 69.625V48.375H850.92V69.625H765.92ZM765.92 37.75V16.5H850.92V37.75H765.92ZM957.17 144L882.795 69.625L914.67 37.75H882.795V101.5H861.545V16.5H946.545V37.75L914.67 69.625L957.17 112.125V144ZM941.233 101.5L962.483 80.25H1010.3L1020.92 69.625H957.17V37.75L978.42 16.5H1058.11L1036.86 37.75H989.045L978.42 48.375H1042.17V80.25L1020.92 101.5H941.233Z" fill="white"/>
</svg>
