<svg width="207" height="31" viewBox="0 0 207 31" fill="none" xmlns="http://www.w3.org/2000/svg">
<path d="M4.19129 20.3343L0.0222168 16.1652V3.68978H16.6349V7.85885H4.15947V14.0966L6.22809 16.1652H16.603V20.3343H4.12764H4.19129ZM24.973 26.572V13.0782L18.7353 6.84045V0.602753L27.0416 8.90908L32.2291 3.7216H38.4668L29.1103 13.0782V22.4347L24.9412 26.6038L24.973 26.572ZM37.4484 30.741V24.5033L47.8234 14.1284H41.5857L47.8234 7.89068H41.5857V20.3661H37.4166V3.75343H54.0292V7.9225L51.9606 9.99113H54.0292V14.1602L37.4166 30.7729L37.4484 30.741ZM56.1297 20.3661V16.197H72.7423V20.3661H56.1297ZM56.1297 14.1284V9.9593H72.7423V14.1284H56.1297ZM56.1297 7.89068V3.7216H72.7423V7.89068H56.1297ZM93.5241 28.6724L78.98 14.1284L85.2178 7.89068H78.98V20.3661H74.811V3.75343H91.4236V7.9225L85.1859 14.1602L93.4922 22.4665V28.7042L93.5241 28.6724ZM93.5241 20.3661V3.75343H97.6931V16.2288H103.931L105.999 14.1602V3.78525H110.169V16.2607L105.999 20.4297H93.5241V20.3661ZM128.818 23.4849L116.343 11.0095V20.3661H112.174V0.634578L124.649 13.11V3.75343H128.818V23.4849ZM147.499 23.4849L135.024 11.0095V20.3661H130.855V0.634578L143.33 13.11V3.75343H147.499V23.4849ZM149.568 20.3661V16.197H166.181V20.3661H149.568ZM149.568 14.1284V9.9593H166.181V14.1284H149.568ZM149.568 7.89068V3.7216H166.181V7.89068H149.568ZM186.962 28.6724L172.418 14.1284L178.656 7.89068H172.418V20.3661H168.249V3.75343H184.862V7.9225L178.624 14.1602L186.93 22.4665V28.7042L186.962 28.6724ZM183.843 20.3661L188.013 16.197H197.369L199.438 14.1284H186.962V7.89068L191.131 3.7216H206.726L202.557 7.89068H193.2L191.131 9.9593H203.607V16.197L199.438 20.3661H183.843Z" fill="white"/>
</svg>
