<svg width="477" height="55" viewBox="0 0 477 55" fill="none" xmlns="http://www.w3.org/2000/svg">
<path d="M0.667236 37.8633V10.8633H7.41724V20.9883L14.1672 14.2383L20.9172 20.9883V10.8633H27.6672V37.8633L14.1672 24.3633L0.667236 37.8633ZM31.0422 44.6133V10.8633H58.0422V37.8633H51.2922V17.6133H37.7922V27.7383L44.5422 20.9883L49.6047 26.0508L31.0422 44.6133ZM88.4172 42.9258L68.1672 22.6758V37.8633H61.4172V5.80078L81.6672 26.0508V10.8633H88.4172V42.9258ZM98.5422 47.9883V17.6133H86.7297L93.4797 10.8633H98.5422V7.48828L105.292 0.738281V10.8633H117.105L110.355 17.6133H105.292V41.2383L98.5422 47.9883ZM128.917 44.6133V10.8633H155.917V37.8633H149.167V17.6133H135.667V27.7383L142.417 20.9883L147.48 26.0508L128.917 44.6133ZM179.542 37.8633L172.792 31.1133V10.8633H199.792V17.6133H179.542V27.7383L182.917 31.1133H199.792V37.8633H179.542ZM213.292 47.9883V26.0508L203.167 15.9258V5.80078L216.667 19.3008L225.105 10.8633H235.23L220.042 26.0508V41.2383L213.292 47.9883ZM233.542 54.7383V44.6133L250.417 27.7383H240.292L250.417 17.6133H240.292V37.8633H233.542V10.8633H260.542V17.6133L257.167 20.9883H260.542V27.7383L233.542 54.7383ZM263.917 37.8633V31.1133H290.917V37.8633H263.917ZM263.917 27.7383V20.9883H290.917V27.7383H263.917ZM263.917 17.6133V10.8633H290.917V17.6133H263.917ZM324.667 51.3633L301.042 27.7383L311.167 17.6133H301.042V37.8633H294.292V10.8633H321.292V17.6133L311.167 27.7383L324.667 41.2383V51.3633ZM324.667 37.8633V10.8633H331.417V31.1133H341.542L344.917 27.7383V10.8633H351.667V31.1133L344.917 37.8633H324.667ZM382.042 42.9258L361.792 22.6758V37.8633H355.042V5.80078L375.292 26.0508V10.8633H382.042V42.9258ZM412.417 42.9258L392.167 22.6758V37.8633H385.417V5.80078L405.667 26.0508V10.8633H412.417V42.9258ZM415.792 37.8633V31.1133H442.792V37.8633H415.792ZM415.792 27.7383V20.9883H442.792V27.7383H415.792ZM415.792 17.6133V10.8633H442.792V17.6133H415.792ZM476.542 51.3633L452.917 27.7383L463.042 17.6133H452.917V37.8633H446.167V10.8633H473.167V17.6133L463.042 27.7383L476.542 41.2383V51.3633Z" fill="#1CD2F9"/>
</svg>
