<svg width="397" height="49" viewBox="0 0 397 49" fill="none" xmlns="http://www.w3.org/2000/svg">
<path d="M6.37524 36L0.000244141 29.625V10.5H25.5002V16.875H6.37524V26.4375L9.56274 29.625H25.5002V36H6.37524ZM47.8127 29.625V16.875H35.0627V29.625H47.8127ZM28.6877 36V10.5H54.1877V36H28.6877ZM82.8752 40.7812L63.7502 21.6562V36H57.3752V5.71875L76.5002 24.8438V10.5H82.8752V40.7812ZM86.0627 36V16.875L92.4377 10.5H111.563L105.188 16.875H95.6252L92.4377 20.0625V29.625H105.188V26.4375H94.0315L100.406 20.0625H111.563V36H86.0627ZM143.438 48.75L121.125 26.4375L130.688 16.875H121.125V36H114.75V10.5H140.25V16.875L130.688 26.4375L143.438 39.1875V48.75ZM143.438 42.375V10.5H168.938V36H162.563V16.875H149.813V26.4375L156.188 20.0625L160.969 24.8438L143.438 42.375ZM178.5 45.5625V16.875H167.344L173.719 10.5H178.5V7.3125L184.875 0.9375V10.5H196.031L189.656 16.875H184.875V39.1875L178.5 45.5625ZM194.438 36V10.5H200.813V29.625H210.375L213.563 26.4375V10.5H219.938V29.625L213.563 36H194.438ZM223.125 36V10.5H229.5V29.625H245.438V36H223.125ZM248.625 42.375V10.5H274.125V36H267.75V16.875H255V26.4375L261.375 20.0625L266.156 24.8438L248.625 42.375ZM283.688 45.5625V16.875H272.531L278.906 10.5H283.688V7.3125L290.063 0.9375V10.5H301.219L294.844 16.875H290.063V39.1875L283.688 45.5625ZM299.625 36V16.875L306 10.5V29.625L299.625 36ZM328.313 29.625V16.875H315.563V29.625H328.313ZM309.188 36V10.5H334.688V36H309.188ZM363.375 40.7812L344.25 21.6562V36H337.875V5.71875L357 24.8438V10.5H363.375V40.7812ZM361.781 36L368.156 29.625H382.5L385.688 26.4375H366.563V16.875L372.938 10.5H396.844L390.469 16.875H376.125L372.938 20.0625H392.063V29.625L385.688 36H361.781Z" fill="#1CD2F9"/>
</svg>
