<svg width="333" height="53" viewBox="0 0 333 53" fill="none" xmlns="http://www.w3.org/2000/svg">
<path d="M0.667969 37.7285V7.72852H8.16797V18.9785L15.668 11.4785L23.168 18.9785V7.72852H30.668V37.7285L15.668 22.7285L0.667969 37.7285ZM34.418 37.7285V30.2285H64.418V37.7285H34.418ZM34.418 26.4785V18.9785H64.418V26.4785H34.418ZM34.418 15.2285V7.72852H64.418V15.2285H34.418ZM68.168 15.2285V0.228516H75.668V7.72852L68.168 15.2285ZM113.168 52.7285L86.918 26.4785L98.168 15.2285H86.918V37.7285H79.418V7.72852H109.418V15.2285L98.168 26.4785L113.168 41.4785V52.7285ZM113.168 37.7285V30.2285H143.168V37.7285H113.168ZM113.168 26.4785V18.9785H143.168V26.4785H113.168ZM113.168 15.2285V7.72852H143.168V15.2285H113.168ZM156.293 37.7285L163.793 30.2285H180.668L184.418 26.4785H161.918V15.2285L169.418 7.72852H197.543L190.043 15.2285H173.168L169.418 18.9785H191.918V30.2285L184.418 37.7285H156.293ZM218.168 30.2285V15.2285H203.168V30.2285H218.168ZM195.668 37.7285V7.72852H225.668V37.7285H195.668ZM263.168 52.7285L236.918 26.4785L248.168 15.2285H236.918V37.7285H229.418V7.72852H259.418V15.2285L248.168 26.4785L263.168 41.4785V52.7285ZM296.918 52.7285L270.668 26.4785L281.918 15.2285H270.668V37.7285H263.168V7.72852H293.168V15.2285L281.918 26.4785L296.918 41.4785V52.7285ZM308.168 48.9785V24.6035L296.918 13.3535V2.10352L311.918 17.1035L321.293 7.72852H332.543L315.668 24.6035V41.4785L308.168 48.9785Z" fill="#1CD2F9"/>
</svg>
