<svg width="528" height="61" viewBox="0 0 528 61" fill="none" xmlns="http://www.w3.org/2000/svg">
<path d="M8.16748 41.9331L0.66748 34.4331V11.9331H30.6675V19.4331H8.16748V30.6831L11.9175 34.4331H30.6675V41.9331H8.16748ZM45.6675 53.1831V28.8081L34.4175 17.5581V6.30811L49.4175 21.3081L58.7925 11.9331H70.0425L53.1675 28.8081V45.6831L45.6675 53.1831ZM68.1675 60.6831V49.4331L86.9175 30.6831H75.6675L86.9175 19.4331H75.6675V41.9331H68.1675V11.9331H98.1675V19.4331L94.4175 23.1831H98.1675V30.6831L68.1675 60.6831ZM101.917 41.9331V34.4331H131.917V41.9331H101.917ZM101.917 30.6831V23.1831H131.917V30.6831H101.917ZM101.917 19.4331V11.9331H131.917V19.4331H101.917ZM169.417 56.9331L143.167 30.6831L154.417 19.4331H143.167V41.9331H135.667V11.9331H165.667V19.4331L154.417 30.6831L169.417 45.6831V56.9331ZM169.417 41.9331V11.9331H176.917V34.4331H188.167L191.917 30.6831V11.9331H199.417V34.4331L191.917 41.9331H169.417ZM233.167 47.5581L210.667 25.0581V41.9331H203.167V6.30811L225.667 28.8081V11.9331H233.167V47.5581ZM266.917 47.5581L244.417 25.0581V41.9331H236.917V6.30811L259.417 28.8081V11.9331H266.917V47.5581ZM270.667 41.9331V34.4331H300.667V41.9331H270.667ZM270.667 30.6831V23.1831H300.667V30.6831H270.667ZM270.667 19.4331V11.9331H300.667V19.4331H270.667ZM338.167 56.9331L311.917 30.6831L323.167 19.4331H311.917V41.9331H304.417V11.9331H334.417V19.4331L323.167 30.6831L338.167 45.6831V56.9331ZM332.542 41.9331L340.042 34.4331H356.917L360.667 30.6831H338.167V19.4331L345.667 11.9331H373.792L366.292 19.4331H349.417L345.667 23.1831H368.167V34.4331L360.667 41.9331H332.542ZM416.917 47.5581L394.417 25.0581V41.9331H386.917V6.30811L409.417 28.8081V11.9331H416.917V47.5581ZM420.667 53.1831V11.9331H450.667V19.4331H428.167V23.1831H450.667L443.167 30.6831H428.167V45.6831L420.667 53.1831ZM461.917 53.1831V19.4331H448.792L456.292 11.9331H461.917V8.18311L469.417 0.683105V11.9331H482.542L475.042 19.4331H469.417V45.6831L461.917 53.1831ZM480.667 19.4331V4.43311H488.167V11.9331L480.667 19.4331ZM486.292 41.9331L493.792 34.4331H510.667L514.417 30.6831H491.917V19.4331L499.417 11.9331L527.542 11.9331L520.042 19.4331H503.167L499.417 23.1831H521.917V34.4331L514.417 41.9331H486.292Z" fill="#1CD2F9"/>
</svg>
