<svg width="272" height="89" viewBox="0 0 272 89" fill="none" xmlns="http://www.w3.org/2000/svg">
<path d="M53.1753 88.1177L12.4878 47.4302L29.9253 29.9927H12.4878V64.8677H0.862793V18.3677H47.3628V29.9927L29.9253 47.4302L53.1753 70.6802V88.1177ZM53.1753 76.4927V18.3677H99.6753V64.8677H88.0503V29.9927H64.8003V47.4302L76.4253 35.8052L85.144 44.5239L53.1753 76.4927ZM157.8 88.1177L117.113 47.4302L134.55 29.9927H117.113V64.8677H105.488V18.3677H151.988V29.9927L134.55 47.4302L157.8 70.6802V88.1177ZM157.8 64.8677V29.9927L169.425 18.3677V53.2427L157.8 64.8677ZM186.863 82.3052V29.9927H166.519L178.144 18.3677H186.863V12.5552L198.488 0.930176V18.3677H218.832L207.207 29.9927H198.488V70.6802L186.863 82.3052ZM233.363 82.3052V44.5239L215.925 27.0864V9.64893L239.175 32.8989L253.707 18.3677H271.144L244.988 44.5239V70.6802L233.363 82.3052Z" fill="#4F3E72"/>
</svg>
