<svg width="534" height="101" viewBox="0 0 534 101" fill="none" xmlns="http://www.w3.org/2000/svg">
<path d="M75.3783 100.698L17.0291 42.3492L42.0359 17.3424H17.0291V67.356H0.35788V0.671181H67.0427V17.3424L42.0359 42.3492L75.3783 75.6916V100.698ZM125.392 50.6848V17.3424H92.0494V50.6848H125.392ZM75.3783 67.356V0.671181H142.063V67.356H75.3783ZM150.399 84.0272V0.671181H217.083V67.356H200.412V17.3424H167.07V42.3492L183.741 25.678L196.244 38.1814L150.399 84.0272ZM275.433 50.6848V25.678L267.097 17.3424H242.09V50.6848H275.433ZM225.419 67.356V0.671181H275.433L292.104 17.3424V67.356H225.419ZM300.439 67.356V0.671181L333.782 34.0136L367.124 0.671181V67.356H350.453V42.3492L333.782 59.0204L317.111 42.3492V67.356H300.439ZM375.46 84.0272V0.671181H442.145V67.356H425.473V17.3424H392.131V42.3492L408.802 25.678L421.306 38.1814L375.46 84.0272ZM483.822 25.678L492.158 17.3424H467.151V25.678H483.822ZM450.48 67.356V0.671181H533.836L492.158 42.3492H467.151V67.356H450.48Z" fill="black"/>
</svg>
