<svg width="287" height="64" viewBox="0 0 287 64" fill="none" xmlns="http://www.w3.org/2000/svg">
<path d="M16.6672 63.7881V23.2881H0.917236L9.91724 14.2881H16.6672V9.78809L25.6672 0.788086V14.2881H41.4172L32.4172 23.2881H25.6672V54.7881L16.6672 63.7881ZM39.1672 63.7881V14.2881H48.1672V27.7881H66.1672V9.78809L75.1672 0.788086V50.2881H66.1672V36.7881H48.1672V54.7881L39.1672 63.7881ZM79.6672 50.2881V41.2881H115.667V50.2881H79.6672ZM79.6672 36.7881V27.7881H115.667V36.7881H79.6672ZM79.6672 23.2881V14.2881H115.667V23.2881H79.6672ZM147.167 63.7881V23.2881H131.417L140.417 14.2881H147.167V9.78809L156.167 0.788086V14.2881H171.917L162.917 23.2881H156.167V54.7881L147.167 63.7881ZM169.667 50.2881V41.2881H205.667V50.2881H169.667ZM169.667 36.7881V27.7881H205.667V36.7881H169.667ZM169.667 23.2881V14.2881H205.667V23.2881H169.667ZM210.167 59.2881V14.2881H246.167V50.2881H237.167V23.2881H219.167V36.7881L228.167 27.7881L234.917 34.5381L210.167 59.2881ZM250.667 50.2881V14.2881L268.667 32.2881L286.667 14.2881V50.2881H277.667V36.7881L268.667 45.7881L259.667 36.7881V50.2881H250.667Z" fill="white"/>
</svg>
